<?xml version="1.0" standalone="no"?>
<!DOCTYPE svg PUBLIC "-//W3C//DTD SVG 1.1//EN" "http://www.w3.org/Graphics/SVG/1.1/DTD/svg11.dtd" >
<svg xmlns="http://www.w3.org/2000/svg">
<metadata></metadata>
<defs>
<font id="dancing_script_otregular" horiz-adv-x="1071" >
<font-face units-per-em="2048" ascent="1475" descent="-573" />
<missing-glyph horiz-adv-x="571" />
<glyph unicode="&#xfb01;" horiz-adv-x="1136" d="M-176 -393q0 103 41.5 284t109.5 387.5t160 420t186.5 385.5t196 281.5t182.5 109.5q70 0 70 -89q0 -113 -83 -261t-206.5 -280.5t-257.5 -226.5q-27 -65 -35 -90q34 -12 48 -51q53 -174 184 -174q62 0 129.5 37t126.5 96q47 112 103.5 185t109.5 73q19 0 32 -12t13 -33 t-33.5 -81t-73 -125.5t-73 -150.5t-33.5 -151q0 -71 23.5 -97t76.5 -26q158 0 316 314l18 -21q-58 -172 -168.5 -268t-234.5 -96q-76 0 -117 48t-41 124q0 91 49 233q-126 -102 -258 -102q-71 0 -141 33q8 -57 8 -131q0 -169 -45.5 -338t-119 -278t-150.5 -109 q-19 0 -36.5 7.5t-36 25t-29.5 55.5t-11 92zM-49 -377q0 -98 39 -98q38 0 87.5 102t85.5 253.5t36 277.5q0 48 -2 79.5t-17 78t-43 69.5q-83 -239 -134.5 -447.5t-51.5 -314.5zM256 702q184 170 309 353.5t125 253.5q0 28 -28 28q-75 0 -184.5 -178t-221.5 -457zM913 952 q0 41 49 74t101 33q67 0 67 -64q0 -39 -42 -74.5t-91 -35.5q-36 0 -60 17t-24 50z" />
<glyph unicode="&#xfb02;" horiz-adv-x="1126" d="M-176 -393q0 103 41.5 284t109.5 387.5t160 420t186.5 385.5t196 281.5t182.5 109.5q70 0 70 -89q0 -113 -83 -261t-206.5 -280.5t-257.5 -226.5q-27 -65 -35 -90q41 -12 48 -63q13 -109 63.5 -158t124.5 -49q94 0 209 68q35 159 120 365t178.5 376.5t182.5 289 t133 118.5q30 0 49 -51t19 -101q0 -69 -44 -192t-115.5 -259.5t-175 -275.5t-210.5 -227q-27 -125 -27 -207q0 -158 91 -158q75 0 152.5 95t139.5 233l33 -17q-176 -376 -385 -376q-84 0 -124 57.5t-40 153.5q0 49 13 122q-114 -63 -228 -63q-79 0 -147 39q4 -66 4 -96 q0 -169 -45.5 -338t-119 -278t-150.5 -109q-19 0 -36.5 7.5t-36 25t-29.5 55.5t-11 92zM-49 -377q0 -98 39 -98q38 0 87.5 101.5t85.5 250t36 270.5q0 162 -64 230q-82 -242 -133 -446.5t-51 -307.5zM256 702q184 170 309 353.5t125 253.5q0 28 -28 28q-75 0 -184.5 -178 t-221.5 -457zM788 438q112 113 223 289.5t175.5 327.5t64.5 221q0 33 -14 33q-28 0 -113 -132t-184 -343.5t-152 -395.5z" />
<glyph horiz-adv-x="2048" />
<glyph horiz-adv-x="2048" />
<glyph unicode="&#xd;" horiz-adv-x="2048" />
<glyph unicode=" "  horiz-adv-x="571" />
<glyph unicode="&#x09;" horiz-adv-x="571" />
<glyph unicode="&#xa0;" horiz-adv-x="571" />
<glyph unicode="!" horiz-adv-x="731" d="M4 35q0 33 38.5 58.5t80.5 25.5q53 0 53 -49q0 -31 -33.5 -60.5t-72.5 -29.5q-29 0 -47.5 13.5t-18.5 41.5zM129 211q0 45 22 124.5t39.5 127.5t51.5 137q177 459 259 628q120 247 189 247q17 0 29 -14t12 -34q0 -82 -240 -560.5t-362 -655.5z" />
<glyph unicode="&#x22;" horiz-adv-x="569" d="M86 1255q0 67 40.5 143.5t84.5 76.5q20 0 35.5 -17.5t15.5 -40.5q-18 -19 -34.5 -40.5t-27.5 -38t-24 -41t-19 -37.5t-18.5 -41.5t-17.5 -38.5q-35 20 -35 75zM332 1255q0 67 40.5 143.5t84.5 76.5q20 0 35.5 -17.5t15.5 -40.5q-18 -19 -34.5 -40.5t-27.5 -38t-24 -41 t-19 -37.5t-18.5 -41.5t-17.5 -38.5q-35 20 -35 75z" />
<glyph unicode="#" horiz-adv-x="1400" d="M18 317q10 133 443 144q17 90 28 131q-205 -14 -278 -21l-117 -10q10 130 420 141q33 154 77.5 382.5t59.5 297.5q5 25 10.5 38.5t25.5 30t56 24.5q-5 -25 -26.5 -141.5t-55 -294t-63.5 -334.5h8q70 0 254 -9q32 155 78 385t61 301q5 25 10.5 38.5t26 30t56.5 24.5 q-5 -23 -27.5 -143t-57 -300.5t-65.5 -339.5q56 -3 143 -9t152.5 -9.5t118.5 -3.5q-35 -29 -74.5 -44.5t-66 -18.5t-66.5 -3q-45 0 -119 -1t-104 -1q-1 -4 -14 -68.5t-17 -87.5q44 -2 129.5 -8t144.5 -9t109 -3q-50 -42 -97 -54t-108 -12q-137 0 -196 -2 q-26 -128 -44.5 -211t-42 -169.5t-46 -137.5t-51 -93.5t-62 -60.5t-74.5 -18q92 112 227 684h-258q-21 -99 -34 -160.5t-31 -136.5t-32.5 -119.5t-33 -94.5t-37 -77t-42 -51.5t-50 -34.5t-57.5 -10q92 113 225 680q-131 -6 -301 -20zM549 461q94 0 258 -8l33 147 q-113 0 -265 -4z" />
<glyph unicode="$" horiz-adv-x="1089" d="M-4 195q0 65 25 118t64 84.5t84 48.5t89 17q-55 -59 -84 -131t-29 -142q0 -104 63.5 -165.5t182.5 -73.5q70 234 148 588q-41 24 -59.5 35t-55 35.5t-54.5 41.5t-43.5 45.5t-37.5 55t-21.5 61.5t-9.5 74q0 165 130.5 292.5t313.5 155.5q1 6 5.5 24.5t7 27.5t10 25.5 t16.5 26t25.5 20t38.5 16.5q-17 -84 -25 -134q128 0 180 -55.5t52 -157.5q0 -160 -99 -329q-35 7 -53 31.5t-18 54.5q0 31 38 146t38 161q0 49 -34.5 74.5t-113.5 25.5l-121 -639q55 -29 86 -47.5t75.5 -53.5t68 -68t41.5 -83t18 -108q0 -89 -38.5 -164t-103.5 -125 t-147 -80.5t-174 -38.5q-41 -108 -90.5 -162.5t-114.5 -54.5q45 56 101 217q-104 6 -186.5 40.5t-135.5 104t-53 165.5zM387 938q0 -83 48.5 -138.5t137.5 -105.5q28 131 70.5 345t48.5 245q-133 -28 -219 -131t-86 -215zM496 -49q139 13 220 89t81 191q0 88 -47.5 149.5 t-133.5 113.5q-90 -456 -120 -543z" />
<glyph unicode="%" horiz-adv-x="1474" d="M164 -178q90 90 275.5 396.5t359 642t245.5 521.5q11 30 68 61.5t105 31.5q-38 -98 -294.5 -588t-379.5 -688q-117 -187 -207 -282t-172 -95zM205 932q0 94 36.5 193.5t107 172t153.5 72.5q78 0 125 -58t47 -155q0 -90 -37.5 -192t-109 -178t-154.5 -76t-125.5 63 t-42.5 158zM317 915q0 -58 18 -92.5t50 -34.5q46 0 89.5 64.5t68 153.5t24.5 168q0 122 -65 122q-43 0 -79.5 -41t-58.5 -101.5t-34.5 -124t-12.5 -114.5zM866 221q0 94 36.5 193.5t107 172t153.5 72.5q78 0 125 -58t47 -155q0 -89 -37.5 -191t-109 -178.5t-154.5 -76.5 t-125.5 63t-42.5 158zM979 207q0 -59 18 -94t50 -35q46 0 89.5 64t68 153t24.5 168q0 123 -66 123q-56 0 -100.5 -70t-64 -154.5t-19.5 -154.5z" />
<glyph unicode="&#x26;" horiz-adv-x="1368" d="M29 195q0 125 70 241.5t193 195.5t267 93q-77 64 -116.5 149.5t-39.5 174.5q0 109 54 205.5t152.5 157.5t217.5 61q110 0 167 -56t57 -162q0 -113 -52 -213t-104 -100q-22 0 -42.5 19t-33.5 47q168 147 168 280q0 66 -35 105t-104 39q-93 0 -161.5 -59.5t-101 -153 t-32.5 -205.5q0 -207 119 -309q-132 -22 -237.5 -105t-160.5 -192.5t-55 -219.5q0 -54 14.5 -104t43.5 -94.5t82 -71.5t122 -27q141 0 274 94.5t219.5 244t104.5 311.5q-84 -4 -219 -29l-49 -10q3 80 59.5 111.5t153.5 31.5q67 0 172.5 -17t140.5 -18q-14 -29 -30.5 -44.5 t-27.5 -18t-28 -2.5q-47 -2 -118 -2q-14 -139 -78 -270.5t-158 -230.5t-218 -159.5t-251 -60.5q-180 0 -289.5 108t-109.5 265z" />
<glyph unicode="'" horiz-adv-x="321" d="M68 1255q0 67 40.5 143.5t84.5 76.5q20 0 35.5 -17.5t15.5 -40.5q-18 -19 -34.5 -41t-27 -37t-24.5 -41.5t-19 -37t-19.5 -42t-17.5 -38.5q-34 19 -34 75z" />
<glyph unicode="(" horiz-adv-x="430" d="M0 387q0 156 34 306.5t89 266.5t123.5 215t139 163.5t134 100.5t109.5 36q-131 -93 -231.5 -228t-160 -287.5t-89 -310.5t-29.5 -317q0 -308 96 -467q-12 -29 -41 -43q-75 44 -124.5 205t-49.5 360z" />
<glyph unicode=")" horiz-adv-x="618" d="M-82 -129q110 78 203 186t166.5 245.5t115 310t41.5 360.5q0 144 -31 266t-114 236q43 -11 86 -55.5t80.5 -116.5t60.5 -180t23 -232q0 -147 -33.5 -292.5t-87 -259.5t-119 -213t-131 -164.5t-122.5 -102.5t-93 -37q-26 6 -45 49z" />
<glyph unicode="*" d="M199 1171q89 5 239 11q-98 162 -98 235q0 7 1.5 13.5t5.5 12.5t6.5 9t8.5 9.5t7 8.5q89 -189 139 -266q6 12 19.5 42.5t19 42.5t18 37.5t19.5 36.5t19 30t21.5 28t22.5 20.5t26.5 18t28.5 10.5q-14 -38 -66 -142.5t-71 -145.5q93 6 107 6q121 0 176 -60l-266 -24 q6 -9 28 -41.5t30.5 -48.5t22.5 -47t19.5 -65t5.5 -75q-24 28 -182 263q-64 -123 -113 -188.5t-98 -65.5q25 35 45 70.5t31 60t30 66.5t33 71h-53q-167 0 -182 67z" />
<glyph unicode="+" d="M117 295q19 52 102.5 74.5t222.5 25.5v103q0 128 60 211q15 -141 18 -314q182 -3 328 -18q-83 -60 -211 -60h-117q-3 -147 -25 -233.5t-75 -106.5q22 142 22 340q-188 0 -325 -22z" />
<glyph unicode="," horiz-adv-x="321" d="M-14 -104q0 67 40.5 143t84.5 76q20 0 35.5 -17.5t15.5 -40.5q-18 -19 -34.5 -41t-27 -37t-24.5 -41.5t-19 -37t-19.5 -42t-17.5 -38.5q-34 19 -34 76z" />
<glyph unicode="-" d="M117 295q22 57 121 78.5t266 21.5t344 -18q-83 -60 -211 -60h-195q-183 0 -325 -22z" />
<glyph unicode="." horiz-adv-x="319" d="M4 35q0 33 38.5 58.5t80.5 25.5q53 0 53 -49q0 -31 -33.5 -60.5t-72.5 -29.5q-29 0 -47.5 13.5t-18.5 41.5z" />
<glyph unicode="/" horiz-adv-x="860" d="M-113 -332q195 195 779 1714q11 30 67.5 61.5t104.5 31.5q-31 -80 -258.5 -629t-333.5 -801q-75 -179 -172 -278t-187 -99z" />
<glyph unicode="0" horiz-adv-x="1259" d="M47 356q0 117 25 245t69.5 252.5t112 237t147.5 198t180.5 136t206.5 50.5q186 0 296 -137.5t110 -366.5q0 -137 -26.5 -277.5t-74 -267t-116.5 -238t-151.5 -192.5t-182.5 -127.5t-205 -46.5q-79 0 -144 28.5t-110.5 78t-76.5 117.5t-45.5 146t-14.5 164zM219 313 q0 -192 66.5 -307t181.5 -115q89 0 177.5 73t157.5 193t123.5 266.5t83.5 301.5t29 289q0 121 -23.5 208.5t-80 142t-143.5 54.5q-106 0 -201 -79t-161 -202.5t-115 -273t-72 -292.5t-23 -259z" />
<glyph unicode="1" horiz-adv-x="864" d="M33 -94q40 -4 65 -4q89 0 221 22q55 128 110 369.5t107.5 521t77.5 381.5q-190 -135 -235 -135q-27 0 -39 12t-12 47q67 34 198 139t232 216q18 -15 18 -64q0 -38 -21 -117.5t-26 -111.5q-49 -339 -130.5 -686.5t-180.5 -556.5q44 6 82 6q86 0 135.5 -24.5t62.5 -90.5 q-92 10 -161 10q-67 0 -181.5 -9t-167.5 -9q-40 0 -84.5 22.5t-70.5 61.5z" />
<glyph unicode="2" horiz-adv-x="1263" d="M29 0q0 98 153 98q72 0 215 -28q129 114 252.5 289t210 386t86.5 383q0 147 -59 219t-158 72q-131 0 -205.5 -116t-74.5 -297q0 -72 24 -140h-10q-74 20 -109 61t-35 122q0 110 55 207t158 158t230 61q149 0 238.5 -106.5t89.5 -266.5q0 -188 -97 -404 q-81 -179 -215.5 -354.5t-281.5 -296.5l57 -12q273 -64 383 -64q68 0 156 52q-26 -104 -76.5 -152.5t-132.5 -48.5q-112 0 -394 119l-42 17.5t-46 18.5q-138 -88 -233 -88q-62 0 -100.5 31t-38.5 80zM92 -4q0 -22 22.5 -36.5t51.5 -14.5q61 0 153 63q-101 37 -155 37 q-37 0 -54.5 -16t-17.5 -33z" />
<glyph unicode="3" horiz-adv-x="1089" d="M14 113q0 86 44.5 153.5t121.5 67.5q27 0 37 -2q-28 -24 -46.5 -79.5t-18.5 -111.5q0 -102 60.5 -178t156.5 -76q61 0 120 33.5t106 92t76 145.5t29 186q0 86 -20.5 159t-73 134t-133.5 82q97 43 174.5 130t117.5 185.5t40 186.5q0 101 -52.5 149.5t-131.5 48.5 q-93 0 -163.5 -60.5t-70.5 -160.5q0 -70 33 -137q-11 -22 -35.5 -39.5t-46.5 -17.5q-35 0 -55.5 50.5t-20.5 110.5q0 95 58 167.5t144 107.5t181 35q85 0 155 -28.5t115.5 -90t45.5 -146.5q0 -90 -47 -189t-131 -177.5t-181 -104.5q84 -21 146.5 -66t96 -102t49 -113.5 t15.5 -113.5q0 -96 -43 -190.5t-116 -167.5t-178.5 -118.5t-221.5 -45.5q-90 0 -158 27t-105 71.5t-55 93t-18 99.5z" />
<glyph unicode="4" horiz-adv-x="1058" d="M39 453q0 56 37 86q57 67 153 161.5t191.5 184.5t194 188t185.5 203t140 199q23 -9 23 -54q0 -48 -39 -112q-59 -240 -148 -719h86q79 0 123 12q-37 -52 -90.5 -86.5t-93.5 -34.5h-45q-20 -102 -23 -123q-19 -106 -44 -292t-25 -244q-158 14 -158 96q8 77 57 348 q3 24 45 217q-32 0 -90 1t-80 1q-242 0 -399 -32zM219 590q74 10 207 10q85 0 207 -4q82 366 129 520q-67 -68 -241.5 -229t-246.5 -238q-12 -12 -30 -32t-25 -27z" />
<glyph unicode="5" horiz-adv-x="1093" d="M18 111q0 87 44.5 155t121.5 68q27 0 37 -2q-29 -25 -47 -80.5t-18 -118.5q0 -104 51 -175t158 -71q103 0 184 72.5t120.5 178t39.5 218.5q0 65 -15.5 121t-47 101.5t-86 71.5t-126.5 26q-70 0 -188 -23q13 84 56 247.5t95.5 344t61.5 215.5q107 -26 217 -26 q123 0 317 41q8 -31 8 -56q0 -43 -22 -74t-60 -47.5t-80 -24t-89 -7.5q-57 0 -131 13t-93 13t-27 -7t-20 -34q-25 -57 -61.5 -183.5t-65 -240t-28.5 -114.5q95 20 178 20q199 0 302 -106.5t103 -280.5q0 -109 -40.5 -206t-112 -167t-172.5 -110.5t-217 -40.5 q-95 0 -165.5 27t-108.5 71.5t-55.5 92t-17.5 98.5z" />
<glyph unicode="6" horiz-adv-x="1173" d="M94 328q0 117 26 247t73 258t118 244t156 204.5t193 141t223 52.5q87 0 139.5 -30t52.5 -89q0 -71 -94 -99q0 11 2 27.5t2 30.5q0 112 -113 112q-94 0 -183.5 -71t-158.5 -188t-121.5 -253t-86.5 -282q67 63 158.5 98t187.5 35q105 0 187.5 -40.5t134.5 -132t52 -224.5 q0 -234 -149.5 -390.5t-380.5 -156.5q-111 0 -193.5 39t-130.5 109.5t-71 159.5t-23 198zM276 287q0 -51 5.5 -100.5t22 -105.5t43 -97.5t71.5 -69t104 -27.5q100 0 180 75.5t121 187.5t41 231q0 156 -73 235.5t-183 79.5q-90 0 -156 -33.5t-103.5 -92t-55 -129 t-17.5 -154.5z" />
<glyph unicode="7" horiz-adv-x="1058" d="M125 592q1 30 13 52.5t34.5 36.5t48 23.5t61 13.5t64.5 5.5t68 1.5h49q63 119 188 325t150 250q-36 0 -159 -6t-171 -6q-209 0 -209 96q0 34 27 86q19 -3 77 -13t87 -14t87.5 -8.5t123.5 -4.5q228 0 344 40q-56 -93 -111 -153q-169 -249 -328 -598q190 -10 203 -10 q42 0 66 6q-72 -105 -162 -105q-88 0 -156 2q-7 -17 -37 -88t-42.5 -103t-36.5 -97.5t-35.5 -108t-21 -96t-9.5 -96.5q0 -59 24 -78q-29 -62 -78 -92.5t-85 -30.5q-30 0 -50 24t-20 68q0 148 274 698q-174 -5 -278 -20z" />
<glyph unicode="8" horiz-adv-x="1089" d="M39 158q0 34 7 67.5t18 62t31 58.5t38.5 53.5t48 52t52.5 48.5t59 48t60.5 46t64.5 47.5t63 46.5q-52 57 -86.5 99.5t-70.5 100.5t-54 119.5t-18 127.5q0 71 22.5 128.5t59.5 96t87 64.5t102.5 37.5t107.5 11.5q141 0 225 -76.5t84 -218.5q0 -72 -22.5 -138t-66 -123.5 t-90.5 -103t-114 -98.5q43 -47 64 -70.5t58 -68t56 -76.5t40.5 -75t30.5 -86t9 -89q0 -96 -43.5 -178t-115 -135.5t-162.5 -84t-187 -30.5q-79 0 -142.5 22t-103 56t-65.5 79.5t-36.5 89.5t-10.5 89zM164 164q0 -116 76.5 -189t177.5 -73q120 0 219.5 97t99.5 243 q0 104 -51.5 191t-150.5 196q-47 -34 -70.5 -52t-66 -50.5t-64.5 -54t-54 -53.5t-49 -59t-34.5 -59.5t-25 -66.5t-7.5 -70zM412 1161q0 -105 47.5 -194.5t134.5 -190.5q108 91 167.5 188t59.5 216q0 114 -54 175.5t-134 61.5q-37 0 -74 -14t-71 -43t-55 -80.5t-21 -118.5z " />
<glyph unicode="9" horiz-adv-x="1173" d="M111 946q0 111 37.5 208.5t104.5 168t162.5 111.5t207.5 41q116 0 202 -41.5t136 -117t74 -169.5t24 -209q0 -116 -24 -243.5t-67.5 -251.5t-110.5 -236.5t-147.5 -198t-184.5 -136t-216 -50.5q-89 0 -142.5 30.5t-53.5 92.5q0 65 90 94q0 -10 -1 -24.5t-1 -26.5 q0 -119 116 -119q76 0 147.5 47.5t128.5 125.5t106 182t83.5 214.5t57.5 225.5q-64 -64 -154.5 -99t-185.5 -35q-80 0 -149 25t-123.5 74t-85.5 130.5t-31 186.5zM289 934q0 -166 77 -250t191 -84q158 0 235.5 97t77.5 264q0 66 -6.5 125t-24 120t-45 104.5t-74 71 t-106.5 27.5q-97 0 -173 -72t-114 -179.5t-38 -223.5z" />
<glyph unicode=":" horiz-adv-x="399" d="M4 35q0 33 38.5 58.5t80.5 25.5q53 0 53 -49q0 -31 -33.5 -60.5t-72.5 -29.5q-29 0 -47.5 13.5t-18.5 41.5zM127 547q0 33 38.5 58.5t80.5 25.5q53 0 53 -49q0 -31 -33.5 -60.5t-72.5 -29.5q-29 0 -47.5 13.5t-18.5 41.5z" />
<glyph unicode=";" horiz-adv-x="399" d="M-14 -104q0 67 40.5 143t84.5 76q20 0 35.5 -17.5t15.5 -40.5q-18 -19 -34.5 -41t-27 -37t-24.5 -41.5t-19 -37t-19.5 -42t-17.5 -38.5q-34 19 -34 76zM127 547q0 33 38.5 58.5t80.5 25.5q53 0 53 -49q0 -31 -33.5 -60.5t-72.5 -29.5q-29 0 -47.5 13.5t-18.5 41.5z" />
<glyph unicode="&#x3c;" horiz-adv-x="593" d="M80 324l26 4q84 42 192 136t171 183q10 -15 10 -45q0 -39 -32.5 -82t-91.5 -84.5t-108 -71t-114 -63.5q80 -59 142 -93.5t190 -84.5q-28 -33 -59 -33q-47 0 -121.5 41t-134.5 97t-70 96z" />
<glyph unicode="=" d="M117 217q22 57 121 78.5t266 21.5t344 -18q-82 -59 -211 -59h-207q-169 0 -313 -23zM117 422q22 57 121 78.5t266 21.5t344 -18q-83 -60 -211 -60h-207q-176 0 -313 -22z" />
<glyph unicode="&#x3e;" horiz-adv-x="593" d="M80 602q0 30 10 45q63 -89 171 -183t192 -136l26 -4q-10 -40 -69.5 -96t-134 -97t-121.5 -41q-32 0 -60 33q128 50 190 84.5t142 93.5q-65 34 -114 63.5t-108 71t-91.5 84.5t-32.5 82z" />
<glyph unicode="?" horiz-adv-x="933" d="M131 1024q0 86 32 167.5t87.5 144.5t137 101t173.5 38q129 0 203 -71.5t74 -201.5q0 -83 -32.5 -157t-83 -135t-104 -120t-105 -139t-75.5 -166q-12 -41 -23.5 -117.5t-27.5 -113.5q-40 20 -51.5 38t-11.5 58q0 66 21.5 129.5t56 116t76.5 105.5t83.5 107t76 110 t56 125.5t21.5 142.5q0 112 -45 171.5t-117 59.5t-143 -57.5t-118.5 -159.5t-47.5 -217q0 -49 14 -117q-73 11 -100 50.5t-27 107.5zM238 33q0 35 38 60.5t80 25.5q54 0 54 -45q0 -35 -33.5 -64.5t-73.5 -29.5q-28 0 -46.5 14t-18.5 39z" />
<glyph unicode="@" horiz-adv-x="1261" d="M-35 180q0 117 48 230t131.5 201.5t208 143t265.5 54.5q108 0 193 -31.5t136 -85t77.5 -118.5t26.5 -136q0 -100 -48 -197t-131.5 -160t-177.5 -63q-66 0 -98.5 32t-32.5 89q0 13 4 41q-141 -190 -268 -190q-53 0 -87 35t-34 100q0 73 41.5 162t105.5 164t147.5 126.5 t160.5 51.5q64 0 106.5 -34t42.5 -89q0 -70 -82 -70q9 24 9 56q0 92 -78 92q-74 0 -155.5 -82.5t-133 -191t-51.5 -187.5q0 -66 45 -66q24 0 54 16.5t64 51.5t61 65t64.5 81.5t53 74t47.5 68.5q20 -2 42.5 -13t22.5 -28q0 -15 -23.5 -55.5t-47 -90t-23.5 -86.5q0 -67 70 -67 q63 0 124.5 51t100.5 133.5t39 167.5q0 61 -21.5 116.5t-64 102.5t-115 75t-166.5 28q-127 0 -237.5 -51t-184 -133.5t-115.5 -185t-42 -206.5q0 -72 21 -136t64 -117t117.5 -84.5t172.5 -31.5q241 0 438 174l12 -16q-83 -95 -201 -152t-262 -57q-89 0 -162.5 23.5 t-123.5 64t-84.5 95.5t-50 116.5t-15.5 128.5z" />
<glyph unicode="A" horiz-adv-x="1189" d="M4 -72q0 155 311 641q-137 11 -221 11h-71q39 106 213 106q54 0 147 -14q158 236 320.5 446t257.5 299q61 58 98 58q42 0 108 -66q-41 -33 -117.5 -257t-139 -507.5t-62.5 -451.5q0 -164 76 -164q113 0 268 303l20 -21q-63 -167 -158.5 -269.5t-195.5 -102.5 q-160 0 -160 274q0 133 35 305q-166 25 -303 41q-204 -376 -356 -737q-70 40 -70 106zM483 653q53 -11 146 -34t119 -29q42 194 110 400.5t135 355.5q-92 -57 -227 -242.5t-283 -450.5z" />
<glyph unicode="B" horiz-adv-x="1302" d="M41 -14q0 6 10 6q4 0 24 -5t64 -10.5t105 -5.5q172 0 325.5 41t259.5 108.5t168 156t62 180.5q0 258 -516 258q-27 0 -80 -1t-74 -1q-29 -101 -90.5 -324.5t-93.5 -335.5q-51 0 -86 29t-35 70q0 15 4.5 33.5t13.5 47.5t11 35q34 111 91 282.5t159.5 440t183.5 426.5 q-75 -14 -140 -41.5t-99.5 -48t-43.5 -20.5q-16 0 -40.5 20t-24.5 35q91 38 143.5 57t147.5 37.5t194 18.5q63 0 120 -6t124.5 -27t115.5 -55t80.5 -95t32.5 -143q0 -77 -29 -140.5t-74.5 -105.5t-110 -74.5t-125 -49.5t-130.5 -29q467 -29 467 -330q0 -96 -44.5 -182.5 t-118 -150t-166.5 -115.5t-193 -84t-193.5 -49t-171.5 -17q-115 0 -171 39t-56 125zM401 760q78 3 151 13t146 29.5t132 51.5t105.5 75t72.5 103.5t26 132.5q0 267 -346 267q-27 0 -39 -2q-120 -236 -248 -670z" />
<glyph unicode="C" horiz-adv-x="1005" d="M0 322q0 132 35.5 273t96 266.5t144 238.5t175.5 195t194 130t197 48q88 0 138 -43t50 -134q0 -80 -35 -182.5t-91.5 -178t-110.5 -75.5q-43 0 -64 47q76 85 147.5 208.5t71.5 203.5q0 92 -100 92q-72 0 -153 -51.5t-155.5 -137t-144 -201t-120 -238t-81 -253.5 t-30.5 -243q0 -79 16.5 -148t50 -125.5t90.5 -89.5t132 -33q157 0 314.5 129.5t242.5 311.5l28 -21q-53 -103 -119.5 -189.5t-146 -155t-174.5 -106.5t-195 -38q-105 0 -185 42.5t-126.5 114.5t-69 158.5t-22.5 184.5z" />
<glyph unicode="D" horiz-adv-x="1277" d="M37 -86q54 256 171.5 634.5t182.5 553.5q9 24 21 49.5t33.5 61.5t49 58.5t56.5 22.5q28 0 57 -20q-124 -284 -249.5 -684t-192.5 -707q49 -8 88 -8q106 0 212 43.5t197 118.5t170 178.5t134.5 219.5t87.5 246t32 255q0 241 -112.5 362t-306.5 121q-200 0 -334.5 -115 t-134.5 -284q0 -46 10 -76q-64 0 -93.5 32t-29.5 83q0 56 32.5 116t93 113t138.5 95t177.5 67t201.5 25q134 0 234 -43t159.5 -120.5t88 -177t28.5 -221.5q0 -145 -39.5 -286.5t-108.5 -260t-164 -220.5t-203 -173t-229 -111t-239 -40q-155 0 -219 92z" />
<glyph unicode="E" horiz-adv-x="1005" d="M0 195q0 125 70 241.5t193 195.5t267 93q-77 64 -116 149t-39 175q0 108 53.5 205t152 158t216.5 61q113 0 173 -58t60 -164q0 -111 -55.5 -210t-108.5 -99q-22 0 -42 19t-33 47q172 150 172 284q0 64 -37.5 98.5t-108.5 34.5q-137 0 -215 -118t-78 -293q0 -207 119 -309 q-132 -22 -237.5 -105t-160.5 -192.5t-55 -219.5q0 -54 14.5 -104t44 -94.5t82.5 -71.5t122 -27q157 0 314.5 129.5t242.5 311.5l28 -21q-114 -222 -278.5 -355.5t-360.5 -133.5q-180 0 -289.5 108t-109.5 265z" />
<glyph unicode="F" horiz-adv-x="868" d="M80 1104q0 104 76 187t204 128t283 45q73 0 209 -15t199 -15q81 0 151 20q-72 -83 -123 -113t-108 -30q-34 0 -135 15t-156 20q-55 -134 -197 -580q65 -4 186.5 -18t172.5 -15q-33 -46 -93 -56t-296 -15l-91 -306q-102 -341 -106 -534q-86 7 -112.5 45.5t-26.5 116.5 q0 30 5 66.5t19 87.5t24 86.5t35 106t35.5 100t42 115t39.5 107.5q-52 -4 -157 -18l-70 -10q8 136 268 143q134 367 238 584q-54 4 -80 4q-130 0 -202.5 -28t-99 -80t-26.5 -142q0 -82 27 -162q-135 23 -135 160z" />
<glyph unicode="G" horiz-adv-x="1105" d="M0 330q0 154 49.5 320t135.5 310.5t192 261t228.5 184t236.5 67.5q109 0 161 -66t52 -166q0 -110 -54.5 -204.5t-126.5 -94.5q-42 0 -63 47q48 35 104 136t56 178q0 49 -29.5 78.5t-93.5 29.5q-72 0 -153 -52t-155.5 -137.5t-144 -201t-120 -238t-81 -252.5t-30.5 -241 q0 -183 76.5 -290.5t197.5 -107.5q102 0 195.5 100.5t149 242t65.5 278.5q-117 27 -211 27q-17 0 -57.5 -1t-67.5 -1q24 106 139 106q51 0 114.5 -18.5t132 -44t99.5 -33.5l-14 -66q-125 -327 -125 -499q0 -31 3.5 -86t4.5 -74q-110 44 -110 147q0 45 14 94 q-172 -241 -387 -241q-166 0 -274.5 136.5t-108.5 371.5z" />
<glyph unicode="H" horiz-adv-x="1120" d="M23 -178q26 150 73.5 326t151.5 495l-135 -14q3 92 170 125q84 256 174 514q28 87 28 121q0 16 -5 22t-23 6q-62 0 -123 -68.5t-96 -158t-35 -158.5q0 -39 10 -69q-64 0 -93.5 31.5t-29.5 84.5q0 88 70.5 183t166.5 154t173 59q94 0 94 -99q0 -34 -16 -88l-160 -520 q74 4 119 4q161 0 348 -18q152 499 207 614q48 107 112 107q-85 -228 -215 -730q19 -1 72.5 -4.5t81.5 -3.5q-28 -29 -61 -44.5t-55 -18t-56 -2.5q-44 -176 -64 -281q-67 -319 -67 -495q0 -38 4 -74q-78 7 -110 44t-32 116q0 117 50 309q31 125 108 379q-327 -3 -477 -15 q-190 -602 -219 -702q-20 -64 -61.5 -97.5t-79.5 -33.5z" />
<glyph unicode="I" horiz-adv-x="964" d="M0 -180q3 37 17 64.5t38.5 45t52 28.5t67.5 16.5t75 7.5t84 2q65 140 139 427t138.5 570.5t95.5 372.5q-161 -3 -254.5 -11t-206.5 -30q14 79 114 118t304 39q241 0 536 -43q-71 -71 -199 -71q-160 0 -223 -2q-1 -7 -32 -175.5t-55 -294t-58 -292t-58 -260.5 q-72 -283 -172 -350q59 -3 216.5 -20.5t228.5 -19.5q-88 -88 -232 -87q-21 0 -123.5 -0.5t-137 -1.5t-110 -4.5t-132 -10.5t-113.5 -18z" />
<glyph unicode="J" horiz-adv-x="856" d="M0 90q0 82 18.5 160t55 131t82.5 53q25 0 57 -16q-74 -189 -74 -328q0 -93 33 -143.5t96 -50.5q55 0 97 47t86 168q73 199 165.5 591.5t143.5 663.5q-153 -2 -235 -10t-179 -31q22 145 334 145q195 0 428 -43q-36 -59 -158 -59q-29 0 -77 -1t-68 -1q21 -16 32 -43.5 t11 -52.5q0 -100 -92.5 -504t-198.5 -641q-77 -172 -156.5 -236.5t-179.5 -64.5q-221 0 -221 266z" />
<glyph unicode="K" horiz-adv-x="1122" d="M-20 -141q25 56 51 121t71.5 195t82.5 238.5t127.5 374t164.5 480.5q27 78 27 100q0 49 -49 49q-62 0 -123 -68.5t-96 -158t-35 -158.5q0 -39 10 -69q-64 0 -93.5 31.5t-29.5 84.5q0 88 70.5 183t166.5 154t173 59q94 0 94 -99q0 -31 -17 -88l-172 -557q14 19 36 40.5 t37 33.5t53 42t51 40q154 123 312.5 285t246.5 303q18 -24 18 -91q0 -224 -745 -725q49 -82 62 -104t56 -92.5t63.5 -97.5t63.5 -86.5t77 -96t84 -89.5t104.5 -102t119.5 -102q-14 -28 -44.5 -47.5t-65.5 -19.5q-53 0 -134.5 82t-163.5 205.5t-154 251.5t-120 235l-198 -643 q-10 -33 -29.5 -54t-49 -28.5t-49 -9.5t-54.5 -2z" />
<glyph unicode="L" horiz-adv-x="1341" d="M2 70q0 40 36 65t114 25q93 0 251 -43q34 60 71.5 153.5t58.5 155.5t66.5 206.5t59.5 186.5q-94 30 -148 89.5t-54 129.5q0 59 36 110.5t91 51.5q-27 -39 -27 -127q0 -147 117 -211q35 108 67 190t74 165.5t85.5 137t98.5 87t115 33.5q34 0 66.5 -10t63.5 -32.5t50 -65.5 t19 -101t-18 -121t-58 -126t-96 -112.5t-139.5 -80.5t-180.5 -31h-33q-58 -174 -90 -265t-90.5 -224t-113.5 -216q23 -7 92.5 -28.5t100 -30.5t90 -25t95.5 -23.5t81.5 -13.5t82.5 -6q84 0 146 33q-33 -92 -86 -133t-129 -41q-43 0 -92.5 10.5t-110 34t-103.5 42 t-118.5 53.5t-108.5 50q-108 -121 -227 -121q-91 0 -148 59.5t-57 119.5zM55 68q0 -39 42.5 -78t101.5 -39q85 0 157 94q-150 61 -233 61q-68 0 -68 -38zM801 834q71 1 136.5 36t112.5 90t82 120.5t52.5 128t17.5 112.5q0 102 -74 102q-23 0 -46 -11.5t-44.5 -37t-41 -54 t-41 -74.5t-38.5 -86.5t-39 -101.5t-38 -107.5t-39 -116.5z" />
<glyph unicode="M" horiz-adv-x="1533" d="M-23 -178q5 11 100.5 221.5t249 550t300.5 668.5q20 45 20 84q0 26 -14.5 39.5t-54.5 13.5q-82 0 -142 -60t-86 -142.5t-26 -170.5q0 -27 4 -63q-53 0 -81 53t-28 114q0 87 62 168t154.5 129t182.5 48q71 0 114 -36.5t68 -139t25 -283.5q0 -146 -20 -437.5t-23 -369.5 q38 145 121.5 332.5t179.5 356.5t165.5 282.5t117.5 183.5q24 34 34 47t28.5 25t39.5 12q28 0 66 -14q-52 -126 -92 -287q-70 -272 -128.5 -622t-58.5 -535q0 -33 2.5 -56.5t6 -35.5t10.5 -35t12 -41q-102 0 -135 49t-33 180q0 153 33 355t68 344.5t104 404.5 q-132 -169 -299.5 -537.5t-249.5 -611.5q-21 -8 -31 -8q-52 0 -71 60.5t-19 189.5q0 114 16.5 438t16.5 432q0 57 -4 115q-64 -150 -133.5 -315t-114.5 -274.5t-94.5 -227.5t-82 -191.5t-68 -148t-60.5 -116t-52 -76.5t-51 -48.5t-49 -13.5z" />
<glyph unicode="N" horiz-adv-x="1183" d="M2 -178q29 110 82 283t152 496t200 667q15 52 15 84q0 47 -31 47q-62 0 -119 -64t-88 -148t-31 -153q0 -38 11 -71q-64 0 -93.5 31.5t-29.5 84.5q0 67 42 140t103 128.5t133.5 91.5t130.5 36q24 0 45.5 -8.5t39 -27t32 -39.5t27.5 -56t22.5 -64t19 -77t15.5 -83t13.5 -92 t12 -93.5t11.5 -98.5q43 -374 90 -689q37 251 163.5 693t166.5 534q13 33 50.5 67t78.5 34q-120 -317 -262.5 -873.5t-145.5 -779.5q-66 0 -104.5 38t-55.5 128q-51 272 -186 1218q-238 -853 -304 -1054q-80 -243 -137 -300q-30 -30 -69 -30z" />
<glyph unicode="O" horiz-adv-x="1265" d="M0 330q0 154 50 320t136.5 310.5t193.5 261t230.5 184t237.5 67.5q75 0 123 -25h-23q-102 0 -214 -70.5t-209 -190.5t-175.5 -266t-124 -310t-45.5 -310q0 -115 27 -204.5t91 -147.5t157 -58q111 0 215 72t182.5 191t138 267.5t90.5 308t31 304.5q0 105 -22.5 194 t-69.5 89t-107.5 -78t-106.5 -179t-63 -181q-98 22 -98 100q0 70 64 164t153 161.5t154 67.5q50 0 86 -38t54 -100.5t26 -126t8 -130.5q0 -215 -51 -405t-134.5 -324.5t-188.5 -232.5t-213.5 -145.5t-209.5 -47.5q-176 0 -284.5 139.5t-108.5 368.5z" />
<glyph unicode="P" horiz-adv-x="1040" d="M14 -76q0 28 29 113q154 479 257 767.5t247 614.5q-69 -14 -135.5 -42t-104.5 -49t-45 -21q-13 0 -38 20.5t-25 34.5q261 113 452 113q93 0 185 -25.5t169 -73.5t125 -125.5t48 -171.5q0 -88 -37 -161t-94 -120.5t-135 -84t-151.5 -56.5t-151 -32t-126.5 -15.5t-86 -3.5 h-20q-44 -151 -118.5 -419.5t-102.5 -364.5q-55 0 -98.5 29.5t-43.5 72.5zM385 639q93 5 183.5 25t176.5 59t151 92.5t104.5 130.5t39.5 168q0 80 -30.5 142t-82.5 99.5t-117 56.5t-140 20q-127 -253 -285 -793z" />
<glyph unicode="Q" horiz-adv-x="1259" d="M0 408q0 151 41 306t117 290t175 241.5t224 168t254 61.5q195 0 305.5 -134t110.5 -364q0 -170 -59.5 -359.5t-166.5 -357t-237 -268.5q170 -94 303 -94q21 0 38.5 2.5t26.5 5t27 8t27 8.5q-49 -166 -201 -166q-45 0 -89 13t-88 40.5t-74.5 51.5t-76.5 63 q-106 -53 -204 -53q-53 0 -95 14.5t-66 35.5t-39.5 47.5t-20.5 46.5t-5 36q0 41 37.5 74t112.5 33q53 0 114 -21.5t98.5 -42.5t112.5 -67q87 78 161.5 209t121 273t72.5 281.5t26 251.5q0 175 -66.5 276t-203.5 101q-114 0 -221 -71.5t-187 -189t-140.5 -264t-92 -302 t-31.5 -297.5q0 -91 17 -172q-158 0 -158 285zM281 49q0 -16 8 -35.5t25.5 -41.5t53.5 -36t85 -14q81 0 159 43q-77 68 -136 103.5t-120 35.5q-75 0 -75 -55z" />
<glyph unicode="R" horiz-adv-x="1142" d="M20 -76q0 28 29 113q138 425 252 733.5t266 652.5q-76 -13 -146.5 -42t-110 -51.5t-48.5 -22.5q-13 0 -38 20.5t-25 34.5q261 113 460 113q73 0 144.5 -13.5t140 -43.5t120 -73.5t83 -108.5t31.5 -144q0 -83 -35.5 -152t-90.5 -114t-130.5 -79.5t-147 -52.5t-148 -29.5 t-125 -14.5t-87.5 -3q24 -42 68 -120t70 -122t68.5 -113t81.5 -119.5t91 -112.5t114 -121.5t135 -118.5q-12 -26 -43.5 -47t-60.5 -21q-55 0 -136 85.5t-162 215t-152.5 264.5t-120.5 250q-41 -140 -111.5 -393t-99.5 -352q-54 0 -95 29.5t-41 72.5zM399 680 q118 7 226.5 36.5t204 82t153 139.5t57.5 197q0 65 -20.5 116.5t-55 84.5t-82.5 55t-99 31.5t-109 9.5q-124 -248 -275 -752z" />
<glyph unicode="S" horiz-adv-x="1157" d="M-4 188q0 76 24.5 132t65 86t83.5 43.5t89 13.5q-55 -59 -84 -131t-29 -144q0 -122 81 -204t233 -82q96 0 180.5 32.5t142.5 102.5t58 164q0 71 -34.5 131t-89.5 103.5t-121 83.5t-132.5 80.5t-121.5 85t-89.5 107t-34.5 136.5q0 87 42 181.5t115.5 176.5t186.5 135.5 t240 53.5q215 0 215 -205q0 -102 -49 -229.5t-109 -221.5q-67 14 -67 88q0 57 60 213.5t60 216.5q0 44 -25.5 66t-88.5 22q-92 0 -178.5 -46.5t-144.5 -115t-93 -146t-35 -142.5q0 -62 34 -113.5t87.5 -89.5t119 -75t131 -78t119 -88.5t87.5 -117.5t34 -155 q0 -82 -31.5 -153.5t-84 -122.5t-121.5 -87.5t-145 -54.5t-152 -18q-115 0 -210 38.5t-156.5 123.5t-61.5 204z" />
<glyph unicode="T" horiz-adv-x="765" d="M10 1294q13 181 500 181q153 0 363 -22t296 -23q-65 -58 -149 -77.5t-201 -19.5q-23 0 -71.5 1t-73.5 1q-169 -420 -322 -977q-6 -21 -24 -86.5t-23 -84.5t-17.5 -68.5t-16.5 -72t-10.5 -59t-8.5 -64.5t-2 -56q0 -31 2 -45q-87 0 -124.5 38t-37.5 107q0 82 76 299 q84 245 202 551.5t216 517.5q-221 -3 -332.5 -10.5t-241.5 -30.5z" />
<glyph unicode="U" horiz-adv-x="1366" d="M0 1104q0 85 52.5 170.5t144.5 143t194 57.5q211 0 211 -248q0 -101 -39.5 -258t-86.5 -295t-86.5 -292t-39.5 -249q0 -102 42.5 -165.5t129.5 -63.5q80 0 152.5 54.5t125 142.5t88.5 177.5t58 180.5q24 99 39.5 162.5t41.5 167t46 173t46 157t48.5 144.5t46.5 109 t46.5 77.5t42.5 25.5q39 0 102 -66q-36 -24 -126.5 -268.5t-170.5 -560.5t-80 -494q0 -138 37 -189t127 -51q-71 -49 -135 -49q-74 0 -120 63t-46 154q0 64 18 187q-173 -379 -442 -379q-128 0 -197 77.5t-69 200.5q0 88 40 246t88 306t88 315t40 270q0 180 -115 180 q-52 0 -95.5 -36t-69 -91.5t-39 -114.5t-13.5 -112q0 -60 16 -100q-74 0 -107.5 38.5t-33.5 102.5z" />
<glyph unicode="V" horiz-adv-x="1204" d="M0 1110q0 84 51 168.5t139 140.5t185 56q124 0 188 -97t64 -268q0 -134 -41.5 -313t-91 -321.5t-91 -288.5t-41.5 -222q0 -39 12.5 -59.5t45.5 -20.5q67 0 163 83.5t191.5 221t179 296.5t135.5 329t52 299q0 180 -113 213q56 94 119 94q48 0 86.5 -59t38.5 -168t-43 -257 t-113 -298.5t-164 -298.5t-191 -262.5t-198.5 -185t-183.5 -70.5q-20 0 -41 4t-46 15t-44 28.5t-32 47.5t-13 69q0 65 40.5 206.5t88.5 286t88.5 328.5t40.5 323q0 41 -0.5 64.5t-3 58.5t-7 54.5t-13.5 43.5t-22 36.5t-32.5 21t-44.5 8.5q-54 0 -96.5 -34t-66.5 -88 t-36 -111t-12 -111q0 -67 18 -110q-75 0 -110 41t-35 106z" />
<glyph unicode="W" horiz-adv-x="1763" d="M0 1110q0 84 51 168.5t139 140.5t185 56q124 0 188 -97t64 -268q0 -134 -41.5 -312.5t-91 -321t-91 -288.5t-41.5 -223q0 -41 13.5 -60.5t48.5 -19.5q74 0 176 106.5t190 253.5t155.5 305t80.5 259q61 0 92 -31.5t31 -68.5q0 -34 -35.5 -123.5t-78 -185t-78 -217.5 t-35.5 -212q0 -43 11.5 -64.5t45.5 -21.5q67 0 163 83.5t191.5 221t179 296.5t135.5 329t52 299q0 180 -113 213q56 94 119 94q48 0 86.5 -59t38.5 -168t-43 -257t-113 -298.5t-164 -298.5t-191 -262.5t-198.5 -185t-183.5 -70.5q-67 0 -121.5 40t-54.5 113q0 57 41 185 q-110 -157 -219.5 -247.5t-204.5 -90.5q-20 0 -41 4t-46 15t-44 28.5t-32 47.5t-13 69q0 65 40.5 206.5t88.5 286t88.5 328.5t40.5 323q0 41 -0.5 64.5t-3 58.5t-7 54.5t-13.5 43.5t-22 36.5t-32.5 21t-44.5 8.5q-54 0 -96.5 -34t-66.5 -88t-36 -111t-12 -111q0 -67 18 -110 q-75 0 -110 41t-35 106z" />
<glyph unicode="X" horiz-adv-x="1253" d="M0 -229q7 61 27 95t73 91q230 248 465 547q-2 31 -6 88.5t-5 76.5t-3.5 65t-3.5 96t-2 128q-3 272 -22.5 365.5t-98.5 93.5q-64 0 -115 -60t-74.5 -139t-23.5 -155q0 -60 16 -100q-74 0 -107.5 38.5t-33.5 102.5q0 63 32 129.5t84 120t123.5 87.5t145.5 34q44 0 79.5 -12 t60.5 -39t43 -58t29 -80t18 -93.5t10 -111t4 -120.5t1 -132v-124q323 447 455 774q16 -11 32 -42t16 -57q0 -78 -139.5 -292t-360.5 -496q20 -694 192 -694q58 0 144 111t205 323l24 -21q-128 -261 -221 -375t-207 -114q-55 0 -98.5 25t-73 72.5t-50 100.5t-33 125.5 t-19 130t-11.5 130.5q-179 -219 -340.5 -399t-230.5 -236z" />
<glyph unicode="Y" horiz-adv-x="1327" d="M0 1104q0 85 52.5 170.5t144.5 143t194 57.5q108 0 160.5 -61.5t52.5 -145.5q0 -62 -34 -187t-68.5 -262.5t-34.5 -230.5q0 -197 143 -197q68 0 134 45t121 122.5t98 161t81 181.5q139 574 246 574q21 0 54 -18t61 -48q-103 -164 -156 -326t-182 -686q-24 -97 -39.5 -155 t-46 -151t-59.5 -150t-75 -125.5t-97 -107t-122 -65t-153 -26.5q-122 0 -202 51t-80 142q0 111 122 153q-16 -55 -16 -110q0 -87 45.5 -136t132.5 -49q57 0 108.5 22.5t89.5 58t72.5 87.5t58 102t44 111t32.5 105.5t23 93.5q8 36 36.5 180.5t49.5 239.5 q-89 -170 -197 -264.5t-247 -94.5q-116 0 -169.5 65t-53.5 179q0 72 21.5 174.5t48 188.5t48 182.5t21.5 158.5q0 71 -27.5 115.5t-89.5 44.5q-54 0 -98 -36t-70 -91t-39.5 -114.5t-13.5 -112.5q0 -60 16 -100q-74 0 -107.5 38.5t-33.5 102.5z" />
<glyph unicode="Z" horiz-adv-x="1363" d="M0 53q0 47 38.5 77t119.5 30q97 0 278 -54q183 191 400 551q-124 -2 -267 -22l-69 -10q2 42 26.5 71t67.5 44t94 21.5t117 6.5q30 0 92 -4q172 305 240 485q-46 12 -159 56.5t-222 78t-189 33.5q-231 0 -231 -295q0 -44 8 -71q-111 19 -111 147q0 134 105 205.5t291 71.5 q96 0 201 -20.5t180 -45.5t165.5 -45.5t161.5 -20.5q41 0 66 5q-57 -48 -103 -72q-98 -234 -266 -524q23 -2 73.5 -8t83 -8.5t60.5 -2.5q-32 -47 -77 -57.5t-193 -13.5q-232 -380 -446 -584q128 -40 186 -57t154 -37.5t161 -20.5q84 0 146 33q-33 -92 -86 -133t-129 -41 q-30 0 -62.5 5t-73 17.5t-70 22.5t-79.5 31.5t-74.5 32.5t-81.5 38t-75 35q-147 -115 -263 -115q-84 0 -136 51.5t-52 112.5zM53 57q0 -38 36 -75t89 -37q75 0 189 96q-158 65 -238 65q-76 0 -76 -49z" />
<glyph unicode="[" horiz-adv-x="872" d="M63 -137q11 19 23.5 70t60 300.5t146.5 786.5q22 123 55.5 210.5t70.5 130.5t71 61t69 18q15 0 66 -3t82 -3q133 0 204 41q-2 -44 -15 -74.5t-31.5 -48t-48 -27t-56 -12t-64.5 -2.5q-32 0 -68 5.5t-81.5 15.5t-69.5 14q-52 -149 -111.5 -449.5t-110 -587.5t-75.5 -375 q232 2 315 8.5t177 34.5q-8 -79 -71.5 -117t-194.5 -38q-86 0 -185 13.5t-158 27.5z" />
<glyph unicode="\" horiz-adv-x="860" d="M201 1475q45 0 79 -29t46 -64q48 -124 113 -415t116 -560.5t107.5 -492.5t93.5 -246q-88 15 -148 101t-112 276q-40 144 -156.5 758t-138.5 672z" />
<glyph unicode="]" horiz-adv-x="940" d="M23 -180q10 143 215 143q25 0 254 -16q50 145 111.5 434.5t118 593.5t81.5 405h-129q-257 0 -408 -43q0 82 64 110t200 28q149 0 342 -43q-4 -24 -43.5 -272.5t-82.5 -506.5t-68 -383q-36 -180 -76 -265q-71 -150 -186 -150q-287 0 -393 -35z" />
<glyph unicode="^" horiz-adv-x="417" d="M0 942q0 37 47 81t102 71.5t84 27.5q50 0 117.5 -81t67.5 -146q0 -47 -35 -64q-27 54 -62 96t-90 93q-138 -51 -211 -117q-20 13 -20 39z" />
<glyph unicode="_" horiz-adv-x="1705" d="M2 -135q4 40 42 70t100 48.5t155 30t194 15.5t230 4q221 0 441.5 -18t344.5 -19q-133 -92 -333 -92q-129 -1 -303.5 -1.5t-233.5 -0.5t-160 -1.5t-133.5 -3.5t-101 -6.5t-115.5 -10t-127 -15.5z" />
<glyph unicode="`" horiz-adv-x="258" d="M0 1077q5 64 45 64q38 0 90 -52.5t87.5 -111.5t35.5 -84q0 -12 -8 -29t-21 -24q-75 102 -229 237z" />
<glyph unicode="a" horiz-adv-x="894" d="M-90 74q0 72 33 158.5t90.5 168t128.5 150t154.5 110t160.5 41.5q81 0 134 -42.5t53 -110.5q0 -88 -101 -88q10 38 10 71q0 51 -24 83t-76 32q-91 0 -192.5 -103.5t-165.5 -239.5t-64 -236q0 -80 55 -80q36 0 85.5 34.5t91 78t97.5 115.5t84.5 113t72.5 105 q27 -4 54 -17.5t27 -33.5q0 -18 -29.5 -69.5t-59 -112.5t-29.5 -103q0 -35 17.5 -62.5t51.5 -27.5q60 0 150.5 85t177.5 239l21 -21q-64 -163 -179.5 -267.5t-226.5 -104.5q-71 0 -109 42t-38 101q0 24 6 59q-93 -123 -165 -180t-145 -57q-68 0 -109.5 43.5t-41.5 126.5z " />
<glyph unicode="b" horiz-adv-x="808" d="M-57 109q0 118 49.5 297.5t127 358.5t163 338t167 259t130.5 100q31 0 48 -40t17 -89q0 -71 -39.5 -182t-102.5 -224.5t-150.5 -217.5t-174.5 -156q-26 -48 -62 -183t-36 -249q0 -193 113 -193q58 0 121.5 48.5t103.5 123.5q-72 37 -111 110.5t-39 154.5q0 96 50.5 156.5 t121.5 60.5q60 0 94.5 -49t34.5 -140q0 -136 -71 -278q24 -6 53 -6q51 0 94 20t75 58t51 68.5t42 76.5l25 -27q-97 -233 -293 -233q-36 0 -66 6q-135 -228 -325 -228q-104 0 -157.5 69t-53.5 190zM201 633q88 71 178.5 209t143 261t52.5 177q0 16 -8 16q-23 0 -91.5 -98 t-149.5 -259t-125 -306zM340 354q0 -63 24 -121.5t74 -91.5q47 99 47 207q0 70 -18.5 112t-48.5 42q-31 0 -54.5 -43t-23.5 -105z" />
<glyph unicode="c" horiz-adv-x="663" d="M-47 147q0 100 41 200.5t104.5 175.5t144.5 122t158 47q78 0 112 -44t34 -107q0 -62 -28.5 -106t-74.5 -44q-35 0 -59 31q30 15 53 65t23 97q0 26 -10 38.5t-35 12.5q-70 0 -150 -83t-133 -202t-53 -217q0 -73 34 -121.5t115 -48.5q124 0 247 102t188 269l26 -21 q-70 -186 -214.5 -307t-293.5 -121q-103 0 -166 67.5t-63 194.5z" />
<glyph unicode="d" horiz-adv-x="970" d="M-70 111q0 67 32.5 152t89 167t125.5 151.5t150 112.5t154 43q90 0 90 -63q0 -9 -4 -29q-22 31 -78 31q-78 0 -157 -62t-134 -149.5t-89.5 -178.5t-34.5 -151q0 -46 19.5 -72t53.5 -26q88 0 218.5 159t224.5 404q177 459 259 628q120 247 189 247q17 0 29 -14t12 -34 q0 -34 -48.5 -142t-117.5 -251t-138.5 -298.5t-118 -317.5t-48.5 -275v-36t1.5 -27.5t4.5 -23t8 -14.5t13 -10.5t20 -2.5q67 0 161 85t155 218l24 -19q-59 -156 -175 -261t-222 -105q-70 0 -102.5 45t-32.5 108q0 72 39 219q-104 -171 -215.5 -275.5t-202.5 -104.5 q-60 0 -107 44t-47 128z" />
<glyph unicode="e" horiz-adv-x="684" d="M-66 147q0 89 48 194.5t121.5 192.5t169 145t182.5 58q127 0 127 -125q0 -61 -30.5 -119t-81.5 -104.5t-116.5 -83.5t-137.5 -60t-142 -30q-8 -36 -8 -74q0 -74 37 -123t124 -49q126 0 252.5 104.5t206.5 258.5l25 -19q-83 -183 -228 -293t-299 -110q-120 0 -185 66.5 t-65 170.5zM84 254q60 21 125.5 56t131.5 82.5t108.5 110t42.5 124.5q0 25 -9 36t-34 11q-63 0 -139 -64t-137.5 -161.5t-88.5 -194.5z" />
<glyph unicode="f" horiz-adv-x="641" d="M-176 -393q0 103 41.5 284t109.5 387.5t160 420t186.5 385.5t196 281.5t182.5 109.5q70 0 70 -91q0 -84 -49 -191.5t-127.5 -211t-175.5 -199t-195 -164.5q-21 -50 -39 -102q21 -4 35 -23t17 -42q10 -70 16.5 -106.5t20.5 -84.5t30.5 -71.5t44.5 -40.5t66 -17 q67 0 115.5 46.5t111.5 154.5l31 -21q-49 -114 -125 -173.5t-144 -59.5q-77 0 -151 67q-1 -168 -46.5 -335.5t-119 -275t-149.5 -107.5q-19 0 -36.5 7.5t-36 25t-29.5 55.5t-11 92zM-49 -377q0 -98 39 -98q38 0 88 104t85.5 247t35.5 247q0 61 -15.5 112t-54.5 127 q-80 -237 -129 -437t-49 -302zM256 702q184 170 309 353.5t125 253.5q0 28 -28 28q-75 0 -184.5 -178t-221.5 -457z" />
<glyph unicode="g" horiz-adv-x="798" d="M-78 -455q0 46 24.5 90.5t62 79.5t90.5 69t102.5 60.5t105.5 54.5q10 5 15 7q54 138 104 338q-182 -262 -334 -262q-72 0 -112.5 53.5t-40.5 144.5q0 82 35 164t92.5 146.5t128 115t145.5 78t141 27.5q55 0 83 -19t28 -47q0 -16 -9 -27.5t-16 -13.5q-22 31 -82 31 q-77 0 -154.5 -48.5t-132.5 -119.5t-89.5 -152t-34.5 -145q0 -49 19 -74.5t52 -25.5q56 0 139 76t165 194l24 109q8 39 34 71.5t71 32.5q19 0 43 -6q0 -55 -45.5 -221.5t-112.5 -339.5q106 50 198 142t136 204l26 -21q-43 -125 -155 -227t-228 -158q-46 -111 -90 -195.5 t-94 -156t-104.5 -109.5t-110.5 -38q-49 0 -84 29.5t-35 88.5zM-14 -436q0 -32 13.5 -52t35.5 -20q46 0 117.5 88.5t146.5 269.5q-72 -36 -119 -64t-96 -64.5t-73.5 -76t-24.5 -81.5z" />
<glyph unicode="h" horiz-adv-x="976" d="M-25 135q0 113 46 287t119 350.5t154.5 334t162 256.5t131.5 99q34 0 50.5 -40t16.5 -89q0 -71 -40 -182t-104 -224.5t-152 -217.5t-175 -156q-36 -85 -55.5 -198.5t-19.5 -204.5q0 -34 4 -70q181 530 415 530q79 0 117.5 -54t38.5 -130q0 -67 -44 -182t-44 -162 q0 -78 61 -78q69 0 163.5 97t156.5 231l27 -25q-67 -157 -173 -256.5t-221 -99.5q-68 0 -104.5 35.5t-36.5 93.5q0 42 31.5 150t31.5 159q0 98 -77 98q-48 0 -92 -42t-75 -104.5t-63 -136t-56.5 -136t-53.5 -104.5t-56 -42q-37 0 -60.5 64t-23.5 149zM211 633 q88 71 178.5 209t143.5 261t53 177q0 16 -8 16q-22 0 -88.5 -93t-149 -254.5t-129.5 -315.5z" />
<glyph unicode="i" horiz-adv-x="495" d="M-47 119q0 59 27 156t68 190t96 161t104 68q19 0 32 -12t13 -33t-33.5 -81t-73 -125.5t-73 -150.5t-33.5 -151q0 -71 23.5 -97t76.5 -26q158 0 316 314l18 -21q-58 -172 -168.5 -268t-234.5 -96q-76 0 -117 48t-41 124zM272 952q0 41 49 74t101 33q67 0 67 -64 q0 -39 -42 -74.5t-91 -35.5q-36 0 -60 17t-24 50z" />
<glyph unicode="j" horiz-adv-x="448" d="M-430 -469q0 76 72.5 166.5t185.5 152.5q17 10 37 20t47 23t47 23q88 218 137 504q-23 -42 -56 -95.5t-40 -66.5l-18 31q33 60 76.5 176.5t77.5 181t71 64.5q23 0 36 -17.5t13 -44.5q0 -55 -48 -259.5t-116 -405.5q12 7 43.5 25.5t46 27t43.5 28t46.5 34.5t43.5 39.5 t46 50t43.5 60t44.5 73.5l26 -15q-24 -59 -57.5 -108.5t-63.5 -81.5t-73.5 -64.5t-70 -48.5t-73.5 -41.5t-65 -36.5q-29 -80 -60.5 -150t-71 -135t-80 -111.5t-88.5 -74.5t-96 -28q-51 0 -78.5 29t-27.5 75zM-377 -455q0 -49 35 -49q44 0 122 94.5t152 259.5 q-150 -74 -229.5 -155.5t-79.5 -149.5zM158 961q0 44 48 76t101 32q31 0 49.5 -14.5t18.5 -42.5q0 -45 -42 -81t-93 -36q-34 0 -58 17.5t-24 48.5z" />
<glyph unicode="k" horiz-adv-x="915" d="M-29 129q0 122 50 301.5t127.5 354t162 330t162 251.5t119.5 96q27 0 45 -38.5t18 -94.5q0 -147 -121 -336.5t-296 -294.5q-65 -160 -100.5 -317.5t-35.5 -267.5q30 76 61 144t78.5 150.5t94.5 140.5t106.5 98t118.5 40q75 0 128.5 -53.5t53.5 -128.5q0 -62 -33.5 -111 t-82.5 -75.5t-94.5 -40t-79.5 -13.5q3 -25 12.5 -61.5t27.5 -86t49.5 -83t69.5 -33.5q152 0 303 334l21 -21q-45 -155 -152.5 -273t-212.5 -118q-45 0 -81.5 26.5t-59.5 67t-39 91.5t-22.5 97.5t-6.5 86.5q26 0 67.5 11.5t86.5 33.5t77 62t32 89q0 41 -30.5 67t-72.5 26 q-57 0 -112.5 -42t-96 -105t-77.5 -140t-60 -142t-41 -117.5t-22 -60.5q-20 -36 -70 -36q-25 0 -40.5 15t-22 47t-8 58.5t-1.5 71.5zM272 780q132 107 223 259.5t91 238.5q0 18 -6 18q-31 0 -125.5 -157t-182.5 -359z" />
<glyph unicode="l" horiz-adv-x="485" d="M-31 150q0 139 80 371.5t186 440t213 360.5t158 153q30 0 49 -51t19 -101q0 -69 -44 -192t-115.5 -259.5t-175 -275.5t-210.5 -227q-27 -125 -27 -207q0 -158 91 -158q52 0 108.5 50.5t101.5 121t84 156.5l31 -17q-176 -376 -385 -376q-84 0 -124 57.5t-40 153.5z M147 438q112 113 223 289.5t175.5 327.5t64.5 221q0 33 -14 33q-28 0 -113 -132t-184 -343.5t-152 -395.5z" />
<glyph unicode="m" horiz-adv-x="1325" d="M-109 -12q0 9 35 109t70.5 229.5t36.5 208.5q14 16 40.5 29.5t53.5 13.5q55 0 55 -54q0 -59 -53 -233q46 72 95 135.5t106.5 123.5t118 95t112.5 35q111 0 111 -156q0 -70 -20.5 -152t-43.5 -136q174 315 340 315q60 0 88.5 -36.5t28.5 -94.5q0 -57 -38 -179.5 t-38 -162.5q0 -70 62 -70q127 0 274 324l25 -29q-26 -69 -61 -130.5t-79.5 -116.5t-100 -87t-114.5 -32q-68 0 -102.5 41.5t-34.5 107.5q0 52 31 153t31 138t-17 55.5t-43 18.5q-47 0 -101 -66.5t-167 -239.5q-19 -30 -35.5 -61t-37.5 -75t-25 -54q-33 0 -69 11t-36 30 q0 12 32.5 101t64.5 198t32 172q0 78 -51 78q-58 0 -149.5 -92t-179 -232.5t-136.5 -275.5q-31 0 -71 14.5t-40 28.5z" />
<glyph unicode="n" horiz-adv-x="956" d="M-115 14q0 6 36 96t72.5 210t37.5 198q14 16 40.5 29.5t53.5 13.5q55 0 55 -53q0 -71 -65 -270q45 69 91.5 127.5t102.5 113.5t116 87t116 32q74 0 112.5 -54t38.5 -130q0 -67 -42 -172t-42 -152q0 -78 62 -78q126 0 286 320l23 -27q-148 -346 -354 -346q-70 0 -107 36 t-37 95q0 40 30 138t30 147q0 100 -82 100q-35 0 -74.5 -20t-72.5 -47t-75 -77t-68.5 -85.5t-67 -99t-56.5 -91t-51 -86.5q-76 0 -109 45z" />
<glyph unicode="o" horiz-adv-x="829" d="M-61 113q0 81 44 186.5t111.5 199t160 158t179.5 64.5q67 0 88 -43q4 2 15 2q34 0 51.5 -27t17.5 -53q0 -20 -20 -62t-40 -95.5t-20 -100.5q0 -75 43.5 -122.5t100.5 -47.5q88 0 161 156l27 -21q-76 -176 -205 -176q-59 0 -110.5 37t-81.5 106q-67 -156 -161 -248 t-198 -92q-76 0 -119.5 49.5t-43.5 129.5zM70 127q0 -48 20.5 -76t56.5 -28q69 0 153 91t140 224q-12 50 -12 117q0 127 39 186q-66 0 -129.5 -38.5t-110.5 -98t-83.5 -129t-55 -135t-18.5 -113.5z" />
<glyph unicode="p" horiz-adv-x="802" d="M-162 -282q44 131 71 221t65.5 296t72.5 494q2 20 9 27.5t30 7.5q49 0 73.5 -27.5t24.5 -66.5q0 -61 -47 -277q29 56 63.5 105t79.5 95.5t100 73.5t112 27q91 0 148.5 -64.5t57.5 -168.5q0 -64 -22.5 -135t-66.5 -138t-101.5 -121t-134 -87t-158.5 -33q-51 0 -85 12 t-34 25q0 10 51 10q79 0 157 41t134.5 104.5t91.5 144.5t35 158q0 69 -29 113.5t-87 44.5q-51 0 -105.5 -34t-99.5 -86.5t-79.5 -107t-55.5 -102.5q-75 -322 -146.5 -561t-105.5 -272q-10 -10 -25 -10q-23 0 -44 33q-19 31 -19 42q0 15 69 216z" />
<glyph unicode="q" horiz-adv-x="823" d="M-68 115q0 88 52 196.5t131.5 201t186 155.5t204.5 63q69 0 115.5 -28.5t46.5 -71.5q0 -29 -19 -52.5t-49 -23.5q0 49 -29 81t-88 32q-64 0 -128 -40t-113 -102.5t-87 -135t-58.5 -140.5t-20.5 -115q0 -45 19.5 -71.5t51.5 -26.5q31 0 70.5 27.5t73.5 64.5t81.5 103.5 t78 113.5t79.5 125q40 64 91 64q41 0 41 -37q0 -22 -21 -63t-48.5 -87t-60 -125.5t-51.5 -163.5q210 18 342 271l25 -23q-32 -75 -77 -131.5t-95 -90.5t-99.5 -52t-99.5 -23q35 -110 35 -231q0 -146 -44 -249t-108 -103q-71 0 -71 149q0 112 34 293.5t87 331.5 q-183 -262 -324 -262q-61 0 -107.5 44t-46.5 132zM399 -403q0 -58 17 -58q22 0 36.5 80.5t14.5 177.5q0 85 -14 154q-54 -224 -54 -354z" />
<glyph unicode="r" horiz-adv-x="714" d="M-35 260q100 195 166 389q-20 20 -20 49q0 55 32 97.5t54 42.5q28 0 28 -50q0 -8 -11 -40t-11 -35q0 -17 15.5 -35.5t38.5 -33.5t50.5 -37t50.5 -45t38.5 -58t15.5 -76q0 -53 -26 -121.5t-51.5 -129t-25.5 -95.5q0 -62 62 -62q90 0 197.5 103t150.5 203l26 -21 q-63 -141 -184 -249.5t-244 -108.5q-69 0 -109 36.5t-40 96.5q0 62 56.5 196t56.5 187q0 21 -5.5 40t-12 31t-21.5 26t-23 20.5t-27.5 20t-25.5 17.5q-94 -241 -182 -393z" />
<glyph unicode="s" horiz-adv-x="708" d="M-78 164q0 56 18 93.5t38.5 50t45 23.5t29.5 17q132 144 203 297v25q0 70 23.5 104.5t56.5 34.5t33 -27q0 -3 -6.5 -32.5t-6.5 -57.5q0 -55 27 -139.5t53.5 -179t26.5 -174.5q0 -55 -12 -101q74 13 137 67t121 165l18 -21q-37 -107 -113 -168t-174 -75 q-31 -85 -100.5 -127.5t-161.5 -42.5q-69 0 -121 24t-80 64.5t-41.5 85.5t-13.5 94zM14 166q0 -79 46 -139t122 -60q94 0 129 101q-81 16 -149 64.5t-103 105.5q-45 -3 -45 -72zM68 301q33 -71 99 -126.5t155 -74.5q8 54 8 97q0 57 -11 121t-29 138.5t-24 110.5 q-104 -172 -198 -266z" />
<glyph unicode="t" horiz-adv-x="585" d="M-45 109q0 177 119 493q-49 7 -74 16v37q69 -7 90 -8q91 235 193.5 405.5t162.5 170.5q16 0 29.5 -12.5t13.5 -32.5q0 -31 -40 -107t-112.5 -203t-119.5 -227h76q171 0 293 12v-37q-225 -24 -361 -24h-30q-113 -260 -113 -447q0 -89 26.5 -126t88.5 -37q105 0 207.5 93.5 t181.5 256.5l26 -21q-76 -178 -205 -291.5t-270 -113.5q-182 0 -182 203z" />
<glyph unicode="u" horiz-adv-x="899" d="M-37 145q0 75 32 187t75.5 195t72.5 83q12 0 36 -12t40 -29q-43 -67 -90 -193t-47 -218q0 -18 2.5 -37t9 -44t22.5 -41t40 -16q26 0 56 20.5t60.5 60t58 80.5t59 100t52 99.5t48.5 97.5t38 77q99 -17 99 -53q0 -6 -34.5 -83.5t-69 -177t-34.5 -159.5q0 -82 68 -82 q70 0 170.5 91.5t171.5 240.5l27 -19q-65 -163 -183 -268.5t-229 -105.5q-143 0 -143 151q0 42 14 103q-143 -254 -268 -254q-67 0 -110.5 60.5t-43.5 145.5z" />
<glyph unicode="v" horiz-adv-x="835" d="M-16 145q0 41 12 269q3 61 13 78.5t52 17.5q34 0 44 -13t10 -53q0 -43 -9.5 -158.5t-9.5 -170.5q0 -62 10 -88.5t37 -26.5q47 0 113 75t121.5 172t103.5 202q4 130 28 180.5t66 50.5q35 0 54.5 -26t19.5 -52q0 -19 -17.5 -50t-35.5 -88t-18 -136q0 -156 96 -156 q91 0 162 152l26 -21q-74 -172 -203 -172q-69 0 -114 50.5t-58 148.5q-84 -167 -192 -288.5t-199 -121.5q-112 0 -112 225z" />
<glyph unicode="w" horiz-adv-x="1265" d="M-37 145q0 75 32 187t75.5 195t72.5 83q16 0 46 -12.5t30 -28.5q-43 -67 -90 -193.5t-47 -217.5q0 -18 2.5 -37t8.5 -44t22 -41t39 -16q109 0 307 392q17 87 28 124t22 48.5t32 11.5q59 0 59 -45q0 -7 -4 -23q-24 -76 -40.5 -200.5t-16.5 -227.5q0 -100 45 -100 q58 0 149.5 128t167.5 292q0 260 103 260q35 0 54 -25.5t19 -52.5q0 -19 -17.5 -50t-35.5 -88t-18 -136q0 -156 96 -156q91 0 162 152l26 -21q-74 -172 -202 -172q-64 0 -108 43.5t-64 128.5q-86 -160 -188 -271.5t-189 -111.5q-111 0 -111 199q0 74 14 184 q-38 -76 -72.5 -134t-77 -114t-87.5 -86t-90 -30q-67 0 -110.5 60t-43.5 146z" />
<glyph unicode="x" horiz-adv-x="858" d="M-16 297q15 29 41.5 89t45.5 95t49 76t69.5 60.5t89.5 19.5q134 0 170 -195q227 238 278 238q12 0 31.5 -7t19.5 -16q-64 0 -317 -295q3 -26 6 -70.5t5.5 -71t7 -62t11.5 -57t17.5 -42t26 -30t36.5 -9.5q68 0 154 101.5t135 208.5l21 -21q-47 -139 -152.5 -250.5 t-208.5 -111.5q-43 0 -75 22t-51 64.5t-29.5 87.5t-18.5 106q-123 -146 -268 -333q-12 -15 -25 -15q-20 0 -20 31q0 34 88 151t215 258q-4 41 -7 63t-8.5 54.5t-11.5 50t-14.5 36t-21 26.5t-27.5 8q-21 0 -40 -7.5t-37.5 -25t-33 -34.5t-33.5 -47.5t-31.5 -53t-34 -62.5 t-34.5 -63z" />
<glyph unicode="y" horiz-adv-x="798" d="M-78 -465q0 50 21.5 94.5t56 79t86.5 69t105 63t119 61.5q6 3 9 4q61 157 115 375q-161 -261 -299 -261q-66 0 -115 42.5t-49 123.5q0 73 32.5 180.5t76 187t72.5 79.5q17 0 53.5 -15.5t36.5 -31.5q-40 -60 -88 -192.5t-48 -209.5q0 -82 74 -82q55 0 130.5 76.5 t142.5 186.5q10 38 20 94q8 39 34 71.5t71 32.5q19 0 43 -6q0 -56 -46 -227t-114 -346q103 40 193 127.5t145 220.5l26 -21q-74 -239 -387 -383q-42 -104 -86 -190t-93.5 -158t-103 -112.5t-104.5 -40.5q-56 0 -92.5 28t-36.5 80zM-14 -446q0 -22 13.5 -42t41.5 -20 q17 0 43 20t59.5 60.5t75 114.5t80.5 170q-54 -28 -83.5 -45t-72 -43t-66 -47t-47 -48.5t-34 -57t-10.5 -62.5z" />
<glyph unicode="z" horiz-adv-x="651" d="M-182 -469q0 42 22 83.5t54 74t86.5 72t101.5 68t118.5 72t118.5 74.5q0 76 -32 138t-109 123q100 29 161.5 121t61.5 180q0 48 -20.5 78t-58.5 30q-29 0 -56 -11t-49 -26.5t-46.5 -46.5t-41 -56t-40.5 -70.5t-38.5 -75.5t-40.5 -85l-24 21q31 83 55 139.5t58 115.5 t68.5 94t81.5 57t101 22q71 0 120.5 -46.5t49.5 -121.5q0 -105 -69.5 -191t-171.5 -137q105 -80 143 -184q175 134 227 289l23 -25q-52 -163 -238 -303q8 -27 8 -67q0 -122 -69.5 -240.5t-183.5 -194t-236 -75.5q-135 0 -135 104zM-125 -446q0 -34 17.5 -51t46.5 -17 q31 0 75 18.5t93.5 56.5t93.5 89t76 124t40 154q-45 -29 -126.5 -77.5t-125.5 -76.5t-94.5 -67.5t-73 -76.5t-22.5 -76z" />
<glyph unicode="{" horiz-adv-x="714" d="M55 -43q0 57 38 153.5t76 197.5t38 169q0 142 -74 201q61 6 98.5 53.5t52 118t21.5 155t14.5 167t23.5 150.5t55.5 110.5t103.5 42.5q44 0 75 -25.5t37 -83.5q-5 3 -17 9.5t-18.5 10t-15.5 6.5t-16 3q-36 0 -60 -39t-37 -102t-22.5 -139.5t-20 -153.5t-25.5 -141.5 t-44 -107t-70 -46.5q54 -57 54 -142q0 -86 -24.5 -175.5t-53.5 -151t-53.5 -133t-24.5 -125.5q0 -66 67 -66q33 0 52 16q-3 -35 -30.5 -51t-66.5 -16q-71 0 -102 38t-31 97z" />
<glyph unicode="|" horiz-adv-x="692" d="M154 -270q40 106 74.5 369t54.5 521.5t43 500.5t41 306q31 -13 44 -47t13 -69q0 -177 -24 -596.5t-44 -608.5q-20 -187 -67 -281.5t-135 -94.5z" />
<glyph unicode="}" horiz-adv-x="753" d="M57 -70q37 -24 70 -24q20 0 37 13t30 41.5t22.5 57t18 76.5t13.5 81.5t12 88.5q7 66 13.5 111t19.5 105.5t28.5 101t41 77t57.5 52.5q-51 56 -51 147q0 75 36.5 180.5t72.5 199t36 138.5q0 31 -14 31q-12 0 -36.5 -8.5t-47.5 -26.5q9 42 53.5 72.5t85.5 30.5q38 0 60 -21 t22 -49q0 -30 -23.5 -94t-52.5 -129t-52.5 -148t-23.5 -145q0 -146 72 -195q-63 -16 -102.5 -72.5t-56 -134.5t-25 -168.5t-16.5 -178t-24.5 -159t-56 -115.5t-102.5 -44q-46 0 -78.5 25t-38.5 83z" />
<glyph unicode="~" horiz-adv-x="833" d="M102 328q71 94 170 94q53 0 185 -45t213 -45q31 0 61 6q-66 -74 -160 -74q-57 0 -182.5 40t-191.5 40q-54 0 -95 -16z" />
<glyph unicode="&#xa1;" horiz-adv-x="731" d="M4 -465q0 82 240 561t362 656q0 -99 -112 -390q-180 -467 -266 -641q-116 -233 -183 -233q-17 0 -29 13.5t-12 33.5zM559 893q0 31 34 60.5t73 29.5q28 0 46.5 -13.5t18.5 -41.5q0 -33 -38.5 -58.5t-80.5 -25.5q-53 0 -53 49z" />
<glyph unicode="&#xa2;" horiz-adv-x="690" d="M31 496q0 115 61.5 230.5t155.5 195t192 106.5q47 218 66 354q5 36 24.5 59t67.5 34l-82 -435q80 0 115 -44t35 -107q0 -62 -28.5 -106t-74.5 -44q-35 0 -59 31q30 15 53 65t23 97q0 26 -10 38.5t-35 12.5q-21 0 -31 -2q-82 -440 -129 -664q139 23 248 121l34 -32 q-123 -117 -297 -160q-20 -88 -33.5 -145.5t-32.5 -124.5t-35 -108.5t-37.5 -83.5t-44.5 -65t-52 -37t-62 -14q69 78 195 565q-102 0 -164.5 67.5t-62.5 195.5zM158 481q0 -67 28 -114.5t93 -55.5q67 265 147 641q-108 -60 -188 -203.5t-80 -267.5z" />
<glyph unicode="&#xa3;" horiz-adv-x="1341" d="M2 70q0 40 36 65t114 25q93 0 251 -43q54 92 103 231q-161 -19 -168 -20l-70 -11q2 40 24 68t61 43.5t85.5 23t106.5 9.5l30 94q-34 -6 -100 -12.5t-96 -10.5l-70 -10q8 144 301 144l49 153q-94 30 -148 89.5t-54 129.5q0 59 36 110.5t91 51.5q-27 -39 -27 -127 q0 -147 117 -211q35 108 67 190t74 165.5t85.5 137t98.5 87t115 33.5q34 0 66.5 -10t63.5 -32.5t50 -65.5t19 -101t-18 -121t-58 -126t-96 -112.5t-139.5 -80.5t-180.5 -31h-33q-28 -78 -45 -136q49 -3 159 -15.5t159 -12.5q-33 -46 -89.5 -56.5t-262.5 -13.5 q-16 -46 -39 -104q62 -4 180.5 -17t169.5 -14q-23 -33 -59 -46t-99.5 -18t-232.5 -8q-78 -178 -135 -264q23 -7 92.5 -28.5t100 -30.5t90 -25t95.5 -23.5t81.5 -13.5t82.5 -6q84 0 146 33q-33 -92 -86 -133t-129 -41q-43 0 -92.5 10.5t-110 34t-103.5 42t-118.5 53.5 t-108.5 50q-108 -121 -227 -121q-91 0 -148 59.5t-57 119.5zM55 68q0 -39 42.5 -78t101.5 -39q85 0 157 94q-150 61 -233 61q-68 0 -68 -38zM801 834q71 1 136.5 36t112.5 90t82 120.5t52.5 128t17.5 112.5q0 102 -74 102q-23 0 -46 -11.5t-44.5 -37t-41 -54t-41 -74.5 t-38.5 -86.5t-39 -101.5t-38 -107.5t-39 -116.5z" />
<glyph unicode="&#xa4;" horiz-adv-x="1474" d="M123 88q19 19 74.5 58.5t114 94t110.5 128.5q-19 58 -19 137q0 183 95 362q-150 163 -242 246q-15 14 -26 49.5t-11 73.5q0 40 12 70q58 -55 322 -346q119 157 266 157q72 0 126.5 -36.5t84.5 -102.5q26 31 57 75.5t51 71t48.5 53.5t65 39.5t85.5 12.5q13 0 37 -4 q-32 -47 -315 -373q0 -5 1 -16.5t1 -16.5q0 -88 -29.5 -191.5t-81.5 -195.5q234 -220 234 -348q0 -25 -4 -37q-17 31 -57.5 72.5t-110.5 107.5t-119 117q-119 -149 -254 -149q-111 0 -170 82q-172 -191 -346 -191zM520 485q0 -77 43.5 -128.5t91.5 -51.5q67 0 137.5 89 t115 216t44.5 234q0 73 -41 122.5t-92 49.5q-60 0 -117 -57.5t-96 -141t-62.5 -174t-23.5 -158.5z" />
<glyph unicode="&#xa5;" horiz-adv-x="1327" d="M0 1104q0 85 52.5 170.5t144.5 143t194 57.5q108 0 160.5 -61.5t52.5 -145.5q0 -62 -34 -187t-68.5 -262.5t-34.5 -230.5q0 -197 143 -197q68 0 134 45t121 122.5t98 161t81 181.5q139 574 246 574q21 0 54 -18t61 -48q-103 -164 -156 -326t-182 -686q-37 -145 -43 -166 q118 -5 209 -14q-82 -59 -211 -59h-18q-10 -33 -46 -129q84 -1 275 -17q-82 -59 -211 -59h-96q-73 -157 -181.5 -246.5t-269.5 -89.5q-122 0 -202 51t-80 142q0 111 122 153q-16 -55 -16 -110q0 -87 45.5 -136t132.5 -49q205 0 334 285q-167 0 -309 -23q20 53 107 75.5 t233 25.5q18 48 41 127h-11q-217 0 -370 -23q22 57 121.5 79t265.5 22h12l4 12q8 36 36.5 180.5t49.5 239.5q-89 -170 -197 -264.5t-247 -94.5q-116 0 -169.5 65t-53.5 179q0 72 21.5 174.5t48 188.5t48 182.5t21.5 158.5q0 71 -27.5 115.5t-89.5 44.5q-54 0 -98 -36 t-70 -91t-39.5 -114.5t-13.5 -112.5q0 -60 16 -100q-74 0 -107.5 38.5t-33.5 102.5z" />
<glyph unicode="&#xa6;" horiz-adv-x="692" d="M154 -270q54 144 108 673q41 41 94 41q25 0 25 -47q-6 -89 -11 -149.5t-12.5 -130.5t-16 -115.5t-21 -94t-28 -77.5t-35.5 -54t-45.5 -35.5t-57.5 -10.5zM281 606q7 81 18.5 212.5t18 209.5t15.5 167.5t17.5 146t16.5 85.5q31 -13 44 -47t13 -69q0 -39 -10.5 -223.5 t-10.5 -305.5q0 -28 -15 -68.5t-50 -66.5z" />
<glyph unicode="&#xa7;" horiz-adv-x="1157" d="M121 57q0 48 15.5 83.5t41 54.5t53 27.5t56.5 8.5q-72 -75 -72 -174q0 -78 52 -131t149 -53t170 51t73 139q0 45 -22.5 84.5t-58 70.5t-78.5 60.5t-86.5 61.5t-79 67t-58 83t-22.5 104q0 116 87 201.5t241 85.5q33 0 49 -2q-43 24 -63.5 36.5t-55 38.5t-51 47.5t-30 54 t-13.5 68.5q0 54 27.5 115t73.5 113t116 86.5t147 34.5q146 0 146 -130q0 -66 -31 -146t-70 -142q-43 7 -43 55q0 38 38 137.5t38 138.5q0 28 -16.5 42t-55.5 14q-59 0 -114.5 -29.5t-92.5 -73.5t-59 -94.5t-22 -93.5q0 -40 20 -72t52.5 -56t71.5 -47.5t78 -52t71.5 -62.5 t52.5 -87t20 -119q0 -130 -74.5 -197t-205.5 -67q-25 0 -42 3t-26.5 7t-30 13t-41.5 16q14 -15 53.5 -38t79.5 -48t80 -58t65.5 -80.5t25.5 -103.5q0 -63 -33 -117t-85 -89t-114.5 -54.5t-124.5 -19.5q-114 0 -193 60.5t-79 174.5zM369 635q0 -19 2.5 -36.5t13.5 -42 t30 -41.5t55 -29.5t85 -12.5q95 0 145 44.5t50 129.5q0 80 -45 127t-134 47q-86 0 -144 -45.5t-58 -140.5z" />
<glyph unicode="&#xa8;" horiz-adv-x="491" d="M0 954q0 37 44.5 67t90.5 30q62 0 62 -58q0 -36 -38.5 -68t-82.5 -32q-33 0 -54.5 15t-21.5 46zM295 911q0 37 44.5 67t90.5 30q62 0 62 -58q0 -36 -38.5 -68t-82.5 -32q-33 0 -54.5 15t-21.5 46z" />
<glyph unicode="&#xa9;" horiz-adv-x="1417" d="M205 733q0 106 31 196t82.5 152t118 105.5t136.5 63.5t140 20q71 0 141 -20.5t134.5 -64t114.5 -105t79.5 -149t29.5 -190.5q0 -106 -31 -196t-82 -151.5t-117.5 -105t-136.5 -63.5t-140 -20q-71 0 -141 20.5t-135 64t-114.5 104.5t-79.5 148.5t-30 190.5zM262 733 q0 -206 123 -338.5t320 -132.5q196 0 323 133.5t127 345.5q0 206 -123 338.5t-319 132.5t-323.5 -133.5t-127.5 -345.5zM545 612v271q0 96 45.5 141t120.5 45q84 0 126 -48.5t42 -96.5q0 -35 -31 -35q-18 0 -23.5 6t-7.5 18q-4 26 -11 45t-31 37.5t-62 18.5 q-107 0 -107 -131v-271q0 -131 111 -131q36 0 60 21t32 42.5t8 37.5q0 12 9.5 18t17.5 6q35 0 35 -28q-3 -65 -47.5 -107.5t-120.5 -42.5t-121 44.5t-45 139.5z" />
<glyph unicode="&#xaa;" horiz-adv-x="806" d="M61 1036q0 63 36.5 140.5t92.5 143t129 110.5t140 45q56 0 92.5 -30t36.5 -77q0 -61 -70 -61q8 32 8 49q0 35 -17.5 58.5t-53.5 23.5q-48 0 -102.5 -44.5t-96 -107.5t-69 -134t-27.5 -122q0 -55 39 -55q31 0 72 31.5t87.5 88.5t75.5 97.5t66 95.5q57 -14 57 -37 q0 -12 -42 -85t-42 -113q0 -25 12.5 -44.5t36.5 -19.5q41 0 105 60t125 168l14 -15q-43 -115 -124.5 -188.5t-158.5 -73.5q-51 0 -77.5 29.5t-26.5 70.5q0 11 4 43q-64 -87 -114 -127.5t-101 -40.5q-48 0 -77.5 31t-29.5 90z" />
<glyph unicode="&#xab;" horiz-adv-x="829" d="M80 324l26 4q84 42 192 136t171 183q10 -15 10 -45q0 -39 -32.5 -82t-91.5 -84.5t-108 -71t-114 -63.5q80 -59 142 -93.5t190 -84.5q-28 -33 -59 -33q-47 0 -121.5 41t-134.5 97t-70 96zM387 324l27 4q84 42 191.5 136t170.5 183q10 -15 10 -45q0 -39 -32.5 -82 t-91.5 -84.5t-108 -71t-114 -63.5q80 -59 142 -93.5t190 -84.5q-28 -33 -59 -33q-47 0 -121.5 41t-134.5 97t-70 96z" />
<glyph unicode="&#xac;" horiz-adv-x="1380" d="M61 377q34 57 193.5 78.5t425.5 21.5q176 0 317 -6q11 62 58 107q1 -7 5.5 -45t6.5 -66q34 -1 164 -8q-60 -28 -160 -47q0 -12 1 -37t1 -37q0 -116 -21.5 -186t-78.5 -84q8 34 12.5 60.5t6.5 59.5t2.5 54t0.5 73v88q-37 -4 -102 -4q-169 -1 -284.5 -1t-197.5 -0.5 t-164.5 -5.5t-185.5 -15z" />
<glyph unicode="&#xad;" d="M117 295q22 57 121 78.5t266 21.5t344 -18q-48 -34 -132 -47t-286 -13q-176 0 -313 -22z" />
<glyph unicode="&#xae;" horiz-adv-x="1417" d="M205 733q0 106 31 196t82.5 152t118 105.5t136.5 63.5t140 20q71 0 141 -20.5t134.5 -64t114.5 -105t79.5 -149t29.5 -190.5q0 -106 -31 -196t-82 -151.5t-117.5 -105t-136.5 -63.5t-140 -20q-71 0 -141 20.5t-135 64t-114.5 104.5t-79.5 148.5t-30 190.5zM262 733 q0 -206 123 -338.5t320 -132.5q196 0 323 133.5t127 345.5q0 206 -123 338.5t-319 132.5t-323.5 -133.5t-127.5 -345.5zM557 459v581q0 10 9 18.5t22 8.5h129q79 0 127.5 -40t48.5 -132q0 -74 -34 -115.5t-89 -52.5l119 -254q4 -8 4 -14q0 -12 -8 -20.5t-21 -8.5 q-9 0 -18 8.5t-14.5 17t-11.5 20.5l-7 13l-108 234h-84v-264q0 -13 -10 -21t-21 -8q-13 0 -23 8t-10 21zM621 776h96q112 0 112 119q0 117 -112 117h-96v-236z" />
<glyph unicode="&#xb0;" horiz-adv-x="872" d="M248 922q0 79 75.5 154t174.5 75q80 0 117.5 -30.5t37.5 -80.5q0 -78 -79 -153.5t-179 -75.5q-75 0 -111 31t-36 80zM313 922q0 -34 23 -55t70 -21q64 0 125 67t61 129q0 74 -94 74q-67 0 -126 -65.5t-59 -128.5z" />
<glyph unicode="&#xb1;" d="M154 172q19 46 108.5 63t239.5 17q185 0 309 -14q-44 -27 -109.5 -37.5t-203.5 -10.5q-210 0 -344 -18zM154 592q29 73 292 80v82q0 104 54 168q13 -99 16 -250q130 -2 295 -15q-73 -49 -190 -49h-105q-3 -117 -23 -185.5t-67 -84.5q20 111 20 270q-177 0 -292 -16z" />
<glyph unicode="&#xb2;" horiz-adv-x="710" d="M82 715q0 53 84 53q32 0 104 -14q101 89 184 242t83 280q0 70 -28 104.5t-73 34.5q-60 0 -95.5 -57t-35.5 -144q0 -32 14 -73h-16q-40 11 -59 32t-19 62q0 86 65.5 150.5t162.5 64.5q76 0 124 -54t48 -134q0 -129 -86 -277t-203 -244l16 -4q140 -32 187 -32q34 0 90 36 q-15 -61 -43 -89.5t-74 -28.5q-61 0 -199 59l-39 16q-64 -43 -114 -43q-34 0 -56 17t-22 43zM129 713q0 -9 9 -15t20 -6q17 0 63 27q-38 14 -63 14q-29 0 -29 -20z" />
<glyph unicode="&#xb3;" horiz-adv-x="649" d="M82 793q0 43 24.5 77.5t67.5 34.5q17 0 29 -4q-16 -13 -25.5 -40.5t-9.5 -55.5q0 -48 27 -84.5t71 -36.5q60 0 109 63.5t49 157.5q0 67 -29 119t-92 68q75 34 123.5 108t48.5 139q0 50 -24 73.5t-60 23.5q-43 0 -75.5 -29.5t-32.5 -77.5q0 -27 16 -67q-6 -12 -21.5 -22.5 t-27.5 -10.5q-20 0 -31.5 27t-11.5 57q0 71 59.5 114t136.5 43q68 0 116 -35.5t48 -99.5q0 -67 -48.5 -138t-119.5 -95q73 -26 108.5 -82t35.5 -115q0 -100 -84 -181t-203 -81q-88 0 -131 46t-43 104z" />
<glyph unicode="&#xb4;" horiz-adv-x="258" d="M180 893q0 25 35.5 84t87.5 111.5t90 52.5q40 0 45 -64q-154 -135 -229 -237q-13 7 -21 24t-8 29z" />
<glyph unicode="&#xb5;" horiz-adv-x="897" d="M-242 -496q26 91 72 216t77 217.5t72.5 299t75.5 492.5q2 20 9 27.5t30 7.5q49 0 74 -27.5t25 -66.5q-37 -167 -53.5 -246t-31 -166.5t-14.5 -134.5q0 -103 60 -103q26 0 56 20.5t60.5 60t58 80.5t59 100t52 99.5t48.5 97.5t38 77q99 -17 99 -53q0 -6 -34.5 -83.5 t-69 -177t-34.5 -159.5q0 -82 68 -82q70 0 170.5 91.5t171.5 240.5l27 -19q-65 -163 -183 -268.5t-229 -105.5q-143 0 -143 151q0 42 14 103q-143 -254 -268 -254q-52 0 -86 34q-153 -546 -207 -546q-24 0 -44 32.5t-20 44.5z" />
<glyph unicode="&#xb6;" horiz-adv-x="1249" d="M74 688q0 88 39.5 166t104 134t148 99t171 67t174.5 32q-3 142 -19 264q33 16 60 16q26 0 42.5 -18.5t23 -54.5t8.5 -67t2 -77t1 -65q17 -1 47.5 -6.5t38.5 -6.5q-3 182 -12 279q24 16 53 16q59 0 74 -323q94 -31 170 -68q-6 -14 -38.5 -34.5t-45.5 -20.5q-5 0 -15.5 5 t-32.5 17.5t-36 20.5q2 -35 2 -105q0 -294 -6.5 -537t-13.5 -357.5t-13 -139.5q-17 -47 -55.5 -74.5t-83.5 -27.5q5 12 17.5 222.5t24 522t11.5 541.5v8q-46 14 -84 21q7 -178 7 -453q0 -211 -7 -390t-14.5 -265.5t-13.5 -104.5q-17 -43 -71.5 -72.5t-108.5 -29.5 q5 75 20.5 243.5t22.5 253.5q-41 2 -85 7t-104.5 17t-114 29t-107.5 46t-93 65.5t-63.5 89.5t-24.5 115z" />
<glyph unicode="&#xb7;" horiz-adv-x="319" d="M4 309q0 33 38.5 58.5t80.5 25.5q53 0 53 -49q0 -31 -33.5 -60.5t-72.5 -29.5q-29 0 -47.5 13.5t-18.5 41.5z" />
<glyph unicode="&#xb8;" horiz-adv-x="446" d="M41 -281q0 35 45 68q10 -47 33.5 -69.5t52.5 -22.5q57 0 113.5 61t56.5 117q0 19 -8.5 35t-26.5 16q-31 0 -98 -42t-76 -42q-12 0 -20.5 12.5t-8.5 24.5q0 6 43.5 65.5t65.5 80.5l72 55l-109 -166q71 49 137 49q93 0 93 -86q0 -88 -72.5 -158.5t-167.5 -70.5 q-58 0 -91.5 21t-33.5 52z" />
<glyph unicode="&#xb9;" horiz-adv-x="550" d="M82 692h24q3 0 9.5 -1t9.5 -1q44 0 102 10q37 83 83.5 329.5t56.5 281.5q-83 -54 -105 -54q-31 0 -31 37q29 13 96 66t119 108h13q10 -10 10 -32t-12 -68q-8 -33 -35.5 -170t-40.5 -199l-27 -127q-26 -123 -57 -161q10 2 27 2q94 0 106 -66q-54 4 -88 4q-37 0 -91 -4 t-81 -4q-22 0 -47 13t-41 36z" />
<glyph unicode="&#xba;" horiz-adv-x="651" d="M76 1049q0 57 30.5 131.5t78.5 139.5t113 110t126 45q46 0 61 -29q29 0 44.5 -17.5t15.5 -37.5q0 -12 -29 -75t-29 -106q0 -32 41 -32q8 0 56 6q-9 -17 -33.5 -29t-50.5 -12q-40 0 -54 26q-47 -110 -115 -176.5t-141 -66.5q-53 0 -83.5 34t-30.5 89zM168 1059 q0 -33 14.5 -52.5t40.5 -19.5q47 0 107 63.5t98 155.5q-8 33 -8 82q0 90 26 131q-57 0 -111 -40.5t-89.5 -98t-56.5 -118t-21 -103.5z" />
<glyph unicode="&#xbb;" horiz-adv-x="829" d="M80 602q0 30 10 45q63 -89 171 -183t192 -136l26 -4q-10 -40 -69.5 -96t-134 -97t-121.5 -41q-32 0 -60 33q128 50 190 84.5t142 93.5q-65 34 -114 63.5t-108 71t-91.5 84.5t-32.5 82zM387 602q0 30 10 45q63 -89 171 -183t192 -136l26 -4q-10 -40 -69.5 -96t-134 -97 t-121.5 -41q-32 0 -60 33q128 50 190 84.5t142 93.5q-65 34 -114 63.5t-108 71t-91.5 84.5t-32.5 82z" />
<glyph unicode="&#xbc;" horiz-adv-x="1474" d="M164 -178q90 90 275.5 396.5t359 642t245.5 521.5q11 30 68 61.5t105 31.5q-38 -98 -294.5 -588t-379.5 -688q-117 -187 -207 -282t-172 -95zM207 692h24q3 0 9.5 -1t9.5 -1q44 0 102 10q37 83 83.5 329.5t56.5 281.5q-83 -54 -105 -54q-31 0 -31 37q29 13 96 66t119 108 h13q10 -10 10 -32t-12 -68q-8 -33 -35.5 -170t-40.5 -199l-27 -127q-26 -123 -57 -161q10 2 27 2q94 0 106 -66q-54 4 -88 4q-37 0 -91 -4t-81 -4q-22 0 -47 13t-41 36zM788 258q0 30 21 51q70 62 111 100t112 107.5t122 133.5t83 122q27 -3 27 -29q0 -6 -11.5 -45.5 t-35.5 -138.5t-48 -223h35q22 0 74 10q-23 -32 -52.5 -52t-51.5 -20h-15q-11 -58 -27 -165.5t-16 -161.5q-98 7 -98 53q0 39 51 274q-7 0 -20 1t-19 1h-35q-125 0 -207 -18zM901 338q50 4 88 4q10 0 29.5 -1t28.5 -1h38l11 47q23 113 45 184l-90 -88q-13 -13 -46.5 -43.5 t-58.5 -55t-45 -46.5z" />
<glyph unicode="&#xbd;" horiz-adv-x="1474" d="M164 -178q90 90 275.5 396.5t359 642t245.5 521.5q11 30 68 61.5t105 31.5q-38 -98 -294.5 -588t-379.5 -688q-117 -187 -207 -282t-172 -95zM207 692h24q3 0 9.5 -1t9.5 -1q44 0 102 10q37 83 83.5 329.5t56.5 281.5q-83 -54 -105 -54q-31 0 -31 37q29 13 96 66t119 108 h13q10 -10 10 -32t-12 -68q-8 -33 -35.5 -170t-40.5 -199l-27 -127q-26 -123 -57 -161q10 2 27 2q94 0 106 -66q-54 4 -88 4q-37 0 -91 -4t-81 -4q-22 0 -47 13t-41 36zM766 39q0 53 84 53q32 0 104 -14q101 89 184 242t83 280q0 70 -28 104.5t-73 34.5q-60 0 -95.5 -56.5 t-35.5 -143.5q0 -30 15 -74h-17q-40 11 -59 32t-19 62q0 86 65.5 150.5t162.5 64.5q76 0 124 -54t48 -134q0 -129 -86 -276.5t-203 -243.5l16 -5q140 -32 187 -32q33 0 90 37q-15 -62 -43 -90.5t-74 -28.5q-61 0 -199 59l-39 17q-64 -43 -114 -43q-34 0 -56 16.5t-22 42.5z M813 37q0 -9 9 -15t20 -6q17 0 63 27q-38 14 -63 14q-29 0 -29 -20z" />
<glyph unicode="&#xbe;" horiz-adv-x="1474" d="M154 793q0 43 24.5 77.5t67.5 34.5q16 0 28 -4q-34 -27 -34 -96q0 -48 27 -84.5t71 -36.5q60 0 109 63.5t49 157.5q0 67 -29 119t-92 68q75 34 123.5 108t48.5 139q0 50 -24 73.5t-60 23.5q-43 0 -76 -29.5t-33 -77.5q0 -25 17 -67q-6 -12 -21.5 -22.5t-27.5 -10.5 q-20 0 -31.5 27t-11.5 57q0 71 59.5 114t136.5 43q68 0 116 -35.5t48 -99.5q0 -67 -48.5 -138t-119.5 -95q73 -25 108 -81.5t35 -115.5q0 -100 -83.5 -181t-202.5 -81q-88 0 -131 46t-43 104zM164 -178q90 90 275.5 396.5t359 642t245.5 521.5q11 30 68 61.5t105 31.5 q-38 -98 -294.5 -588t-379.5 -688q-117 -187 -207 -282t-172 -95zM788 258q0 30 21 51q70 62 111 100t112 107.5t122 133.5t83 122q27 -3 27 -29q0 -6 -11.5 -45.5t-35.5 -138.5t-48 -223h35q22 0 74 10q-23 -32 -52.5 -52t-51.5 -20h-15q-11 -58 -27 -165.5t-16 -161.5 q-98 7 -98 53q0 39 51 274q-7 0 -20 1t-19 1h-35q-125 0 -207 -18zM901 338q50 4 88 4q10 0 29.5 -1t28.5 -1h38l11 47q23 113 45 184l-90 -88q-13 -13 -46.5 -43.5t-58.5 -55t-45 -46.5z" />
<glyph unicode="&#xbf;" horiz-adv-x="933" d="M109 -330q0 75 32.5 142t83 121.5t103.5 107.5t104.5 125t75.5 149q12 37 23.5 106.5t27.5 102.5q40 -19 52 -35t12 -51q0 -59 -21.5 -116t-56 -104.5t-76.5 -95t-84 -96t-76.5 -98.5t-56 -112.5t-21.5 -128.5q0 -101 45 -155t117 -54q112 0 210.5 117t98.5 274 q0 43 -14 104q73 -10 100 -45t27 -96q0 -78 -32 -151.5t-87.5 -129.5t-136.5 -90t-174 -34q-129 0 -202.5 63t-73.5 180zM530 705q0 35 33.5 64.5t73.5 29.5q28 0 46.5 -14.5t18.5 -39.5q0 -35 -38 -60.5t-80 -25.5q-54 0 -54 46z" />
<glyph unicode="&#xc0;" horiz-adv-x="1189" d="M4 -72q0 155 311 641q-137 11 -221 11h-71q39 106 213 106q54 0 147 -14q158 236 320.5 446t257.5 299q61 58 98 58q42 0 108 -66q-41 -33 -117.5 -257t-139 -507.5t-62.5 -451.5q0 -164 76 -164q113 0 268 303l20 -21q-63 -167 -158.5 -269.5t-195.5 -102.5 q-160 0 -160 274q0 133 35 305q-166 25 -303 41q-204 -376 -356 -737q-70 40 -70 106zM483 653q53 -11 146 -34t119 -29q42 194 110 400.5t135 355.5q-92 -57 -227 -242.5t-283 -450.5zM930 1769q5 64 45 64q38 0 90 -52.5t87.5 -111.5t35.5 -84q0 -12 -8 -29t-21 -24 q-75 102 -229 237z" />
<glyph unicode="&#xc1;" horiz-adv-x="1189" d="M4 -72q0 155 311 641q-137 11 -221 11h-71q39 106 213 106q54 0 147 -14q158 236 320.5 446t257.5 299q61 58 98 58q42 0 108 -66q-41 -33 -117.5 -257t-139 -507.5t-62.5 -451.5q0 -164 76 -164q113 0 268 303l20 -21q-63 -167 -158.5 -269.5t-195.5 -102.5 q-160 0 -160 274q0 133 35 305q-166 25 -303 41q-204 -376 -356 -737q-70 40 -70 106zM483 653q53 -11 146 -34t119 -29q42 194 110 400.5t135 355.5q-92 -57 -227 -242.5t-283 -450.5zM1096 1585q0 25 35.5 84t87.5 111.5t90 52.5q40 0 45 -64q-156 -137 -230 -237 q-13 7 -20.5 24t-7.5 29z" />
<glyph unicode="&#xc2;" horiz-adv-x="1189" d="M4 -72q0 155 311 641q-137 11 -221 11h-71q39 106 213 106q54 0 147 -14q158 236 320.5 446t257.5 299q61 58 98 58q42 0 108 -66q-41 -33 -117.5 -257t-139 -507.5t-62.5 -451.5q0 -164 76 -164q113 0 268 303l20 -21q-63 -167 -158.5 -269.5t-195.5 -102.5 q-160 0 -160 274q0 133 35 305q-166 25 -303 41q-204 -376 -356 -737q-70 40 -70 106zM483 653q53 -11 146 -34t119 -29q42 194 110 400.5t135 355.5q-92 -57 -227 -242.5t-283 -450.5zM895 1634q0 37 47 81t102 72t84 28q50 0 117.5 -81.5t67.5 -146.5q0 -46 -35 -63 q-27 54 -61.5 95t-90.5 93q-138 -51 -211 -117q-20 13 -20 39z" />
<glyph unicode="&#xc3;" horiz-adv-x="1189" d="M4 -72q0 155 311 641q-137 11 -221 11h-71q39 106 213 106q54 0 147 -14q158 236 320.5 446t257.5 299q61 58 98 58q42 0 108 -66q-41 -33 -117.5 -257t-139 -507.5t-62.5 -451.5q0 -164 76 -164q113 0 268 303l20 -21q-63 -167 -158.5 -269.5t-195.5 -102.5 q-160 0 -160 274q0 133 35 305q-166 25 -303 41q-204 -376 -356 -737q-70 40 -70 106zM483 653q53 -11 146 -34t119 -29q42 194 110 400.5t135 355.5q-92 -57 -227 -242.5t-283 -450.5zM803 1554q72 95 170 95q53 0 184.5 -45t212.5 -45q32 0 62 6q-66 -74 -160 -74 q-57 0 -183 40t-192 40q-50 0 -94 -17z" />
<glyph unicode="&#xc4;" horiz-adv-x="1189" d="M4 -72q0 155 311 641q-137 11 -221 11h-71q39 106 213 106q54 0 147 -14q158 236 320.5 446t257.5 299q61 58 98 58q42 0 108 -66q-41 -33 -117.5 -257t-139 -507.5t-62.5 -451.5q0 -164 76 -164q113 0 268 303l20 -21q-63 -167 -158.5 -269.5t-195.5 -102.5 q-160 0 -160 274q0 133 35 305q-166 25 -303 41q-204 -376 -356 -737q-70 40 -70 106zM483 653q53 -11 146 -34t119 -29q42 194 110 400.5t135 355.5q-92 -57 -227 -242.5t-283 -450.5zM881 1647q0 37 44.5 66.5t90.5 29.5q61 0 61 -57q0 -36 -38.5 -68.5t-82.5 -32.5 q-33 0 -54 15.5t-21 46.5zM1176 1604q0 37 44.5 66.5t90.5 29.5q61 0 61 -58q0 -36 -38.5 -68t-82.5 -32q-33 0 -54 15.5t-21 46.5z" />
<glyph unicode="&#xc5;" horiz-adv-x="1189" d="M4 -72q0 155 311 641q-137 11 -221 11h-71q39 106 213 106q54 0 147 -14q158 236 320.5 446t257.5 299q61 58 98 58q42 0 108 -66q-41 -33 -117.5 -257t-139 -507.5t-62.5 -451.5q0 -164 76 -164q113 0 268 303l20 -21q-63 -167 -158.5 -269.5t-195.5 -102.5 q-160 0 -160 274q0 133 35 305q-166 25 -303 41q-204 -376 -356 -737q-70 40 -70 106zM483 653q53 -11 146 -34t119 -29q42 194 110 400.5t135 355.5q-92 -57 -227 -242.5t-283 -450.5zM965 1655q0 79 75 154t174 75q80 0 118 -30.5t38 -79.5q0 -78 -79 -154t-179 -76 q-75 0 -111 31t-36 80zM1044 1669q0 -32 22.5 -58t63.5 -26q58 0 111 60t53 116q0 32 -23.5 54t-66.5 22q-60 0 -110 -55t-50 -113z" />
<glyph unicode="&#xc6;" horiz-adv-x="1595" d="M4 -72q0 155 311 641q-137 11 -221 11h-71q39 106 213 106q54 0 147 -14q222 333 416.5 568t259.5 235q146 0 331.5 -16t301.5 -32q-28 -73 -349 -73q-84 0 -210 4q-79 -155 -172 -508q84 -2 162.5 -10t164.5 -21.5t98 -15.5q-28 -74 -348 -74q-79 0 -108 2 q-82 -351 -82 -538q0 -49 6 -84q81 -13 295 -31.5t262 -30.5q-28 -74 -348 -74q-217 0 -305 9q-60 60 -60 231q0 133 35 305q-166 25 -303 41q-204 -376 -356 -737q-70 40 -70 106zM483 653q53 -11 146 -34t119 -29q42 194 110 400.5t135 355.5q-92 -57 -227 -242.5 t-283 -450.5z" />
<glyph unicode="&#xc7;" horiz-adv-x="1005" d="M0 322q0 132 35.5 273t96 266.5t144 238.5t175.5 195t194 130t197 48q88 0 138 -43t50 -134q0 -80 -35 -182.5t-91.5 -178t-110.5 -75.5q-43 0 -64 47q76 85 147.5 208.5t71.5 203.5q0 92 -100 92q-72 0 -153 -51.5t-155.5 -137t-144 -201t-120 -238t-81 -253.5 t-30.5 -243q0 -79 16.5 -148t50 -125.5t90.5 -89.5t132 -33q157 0 314.5 129.5t242.5 311.5l28 -21q-85 -163 -192 -276l-80 -123q71 49 137 49q92 0 92 -86q0 -89 -72.5 -159t-166.5 -70q-58 0 -91.5 21t-33.5 52q0 35 45 68q10 -47 33.5 -69.5t52.5 -22.5q57 0 113.5 61 t56.5 117q0 19 -8.5 35t-26.5 16q-31 0 -98 -42t-76 -42q-12 0 -20.5 12.5t-8.5 24.5q0 3 37 57q-157 -112 -328 -112q-105 0 -185 42.5t-126.5 114.5t-69 158.5t-22.5 184.5z" />
<glyph unicode="&#xc8;" horiz-adv-x="1005" d="M0 195q0 125 70 241.5t193 195.5t267 93q-77 64 -116 149t-39 175q0 108 53.5 205t152 158t216.5 61q113 0 173 -58t60 -164q0 -111 -55.5 -210t-108.5 -99q-22 0 -42 19t-33 47q172 150 172 284q0 64 -37.5 98.5t-108.5 34.5q-137 0 -215 -118t-78 -293q0 -207 119 -309 q-132 -22 -237.5 -105t-160.5 -192.5t-55 -219.5q0 -54 14.5 -104t44 -94.5t82.5 -71.5t122 -27q157 0 314.5 129.5t242.5 311.5l28 -21q-114 -222 -278.5 -355.5t-360.5 -133.5q-180 0 -289.5 108t-109.5 265zM659 1769q5 64 46 64q38 0 90 -52.5t87.5 -111.5t35.5 -84 q0 -12 -8 -29t-21 -24q-74 100 -230 237z" />
<glyph unicode="&#xc9;" horiz-adv-x="1005" d="M0 195q0 125 70 241.5t193 195.5t267 93q-77 64 -116 149t-39 175q0 108 53.5 205t152 158t216.5 61q113 0 173 -58t60 -164q0 -111 -55.5 -210t-108.5 -99q-22 0 -42 19t-33 47q172 150 172 284q0 64 -37.5 98.5t-108.5 34.5q-137 0 -215 -118t-78 -293q0 -207 119 -309 q-132 -22 -237.5 -105t-160.5 -192.5t-55 -219.5q0 -54 14.5 -104t44 -94.5t82.5 -71.5t122 -27q157 0 314.5 129.5t242.5 311.5l28 -21q-114 -222 -278.5 -355.5t-360.5 -133.5q-180 0 -289.5 108t-109.5 265zM881 1585q0 25 35.5 84t87.5 111.5t90 52.5q40 0 45 -64 q-156 -137 -230 -237q-13 7 -20.5 24t-7.5 29z" />
<glyph unicode="&#xca;" horiz-adv-x="1005" d="M0 195q0 125 70 241.5t193 195.5t267 93q-77 64 -116 149t-39 175q0 108 53.5 205t152 158t216.5 61q113 0 173 -58t60 -164q0 -111 -55.5 -210t-108.5 -99q-22 0 -42 19t-33 47q172 150 172 284q0 64 -37.5 98.5t-108.5 34.5q-137 0 -215 -118t-78 -293q0 -207 119 -309 q-132 -22 -237.5 -105t-160.5 -192.5t-55 -219.5q0 -54 14.5 -104t44 -94.5t82.5 -71.5t122 -27q157 0 314.5 129.5t242.5 311.5l28 -21q-114 -222 -278.5 -355.5t-360.5 -133.5q-180 0 -289.5 108t-109.5 265zM717 1634q0 37 47 81t102 72t84 28q50 0 117.5 -81.5 t67.5 -146.5q0 -46 -35 -63q-27 54 -61.5 95t-90.5 93q-138 -51 -211 -117q-20 13 -20 39z" />
<glyph unicode="&#xcb;" horiz-adv-x="1005" d="M0 195q0 125 70 241.5t193 195.5t267 93q-77 64 -116 149t-39 175q0 108 53.5 205t152 158t216.5 61q113 0 173 -58t60 -164q0 -111 -55.5 -210t-108.5 -99q-22 0 -42 19t-33 47q172 150 172 284q0 64 -37.5 98.5t-108.5 34.5q-137 0 -215 -118t-78 -293q0 -207 119 -309 q-132 -22 -237.5 -105t-160.5 -192.5t-55 -219.5q0 -54 14.5 -104t44 -94.5t82.5 -71.5t122 -27q157 0 314.5 129.5t242.5 311.5l28 -21q-114 -222 -278.5 -355.5t-360.5 -133.5q-180 0 -289.5 108t-109.5 265zM672 1647q0 37 44.5 66.5t90.5 29.5q61 0 61 -57 q0 -36 -38 -68.5t-82 -32.5q-33 0 -54.5 15.5t-21.5 46.5zM967 1604q0 37 44.5 66.5t90.5 29.5q61 0 61 -58q0 -36 -38.5 -68t-82.5 -32q-33 0 -54 15.5t-21 46.5z" />
<glyph unicode="&#xcc;" horiz-adv-x="964" d="M0 -180q3 37 17 64.5t38.5 45t52 28.5t67.5 16.5t75 7.5t84 2q65 140 139 427t138.5 570.5t95.5 372.5q-161 -3 -254.5 -11t-206.5 -30q14 79 114 118t304 39q241 0 536 -43q-71 -71 -199 -71q-160 0 -223 -2q-1 -7 -32 -175.5t-55 -294t-58 -292t-58 -260.5 q-72 -283 -172 -350q59 -3 216.5 -20.5t228.5 -18.5q-88 -88 -232 -88q-21 0 -123.5 -0.5t-137 -1.5t-110 -4.5t-132 -10.5t-113.5 -18zM557 1769q5 64 45 64q38 0 90 -52.5t87.5 -111.5t35.5 -84q0 -12 -8 -29t-21 -24q-75 102 -229 237z" />
<glyph unicode="&#xcd;" horiz-adv-x="964" d="M0 -180q3 37 17 64.5t38.5 45t52 28.5t67.5 16.5t75 7.5t84 2q65 140 139 427t138.5 570.5t95.5 372.5q-161 -3 -254.5 -11t-206.5 -30q14 79 114 118t304 39q241 0 536 -43q-71 -71 -199 -71q-160 0 -223 -2q-1 -7 -32 -175.5t-55 -294t-58 -292t-58 -260.5 q-72 -283 -172 -350q59 -3 216.5 -20.5t228.5 -18.5q-88 -88 -232 -88q-21 0 -123.5 -0.5t-137 -1.5t-110 -4.5t-132 -10.5t-113.5 -18zM778 1585q0 25 35.5 84t87.5 111.5t90 52.5q40 0 45 -64q-154 -135 -229 -237q-13 7 -21 24t-8 29z" />
<glyph unicode="&#xce;" horiz-adv-x="964" d="M0 -180q3 37 17 64.5t38.5 45t52 28.5t67.5 16.5t75 7.5t84 2q65 140 139 427t138.5 570.5t95.5 372.5q-161 -3 -254.5 -11t-206.5 -30q14 79 114 118t304 39q241 0 536 -43q-71 -71 -199 -71q-160 0 -223 -2q-1 -7 -32 -175.5t-55 -294t-58 -292t-58 -260.5 q-72 -283 -172 -350q59 -3 216.5 -20.5t228.5 -18.5q-88 -88 -232 -88q-21 0 -123.5 -0.5t-137 -1.5t-110 -4.5t-132 -10.5t-113.5 -18zM618 1634q0 37 47.5 81t102.5 72t84 28q50 0 117 -81.5t67 -146.5q0 -46 -35 -63q-27 55 -61.5 96t-89.5 92q-138 -51 -211 -117 q-21 13 -21 39z" />
<glyph unicode="&#xcf;" horiz-adv-x="964" d="M0 -180q3 37 17 64.5t38.5 45t52 28.5t67.5 16.5t75 7.5t84 2q65 140 139 427t138.5 570.5t95.5 372.5q-161 -3 -254.5 -11t-206.5 -30q14 79 114 118t304 39q241 0 536 -43q-71 -71 -199 -71q-160 0 -223 -2q-1 -7 -32 -175.5t-55 -294t-58 -292t-58 -260.5 q-72 -283 -172 -350q59 -3 216.5 -20.5t228.5 -18.5q-88 -88 -232 -88q-21 0 -123.5 -0.5t-137 -1.5t-110 -4.5t-132 -10.5t-113.5 -18zM571 1647q0 37 44.5 66.5t91.5 29.5q61 0 61 -57q0 -36 -38.5 -68.5t-82.5 -32.5q-33 0 -54.5 15.5t-21.5 46.5zM866 1604 q0 37 44.5 66.5t90.5 29.5q62 0 62 -58q0 -36 -38.5 -68t-82.5 -32q-33 0 -54.5 15.5t-21.5 46.5z" />
<glyph unicode="&#xd0;" horiz-adv-x="1304" d="M6 561q31 82 256 96q81 261 150 445q9 24 21 49.5t33 61.5t48.5 58.5t56.5 22.5t58 -20q-113 -258 -228 -612q149 0 336 -19q-82 -59 -211 -59h-149q-124 -390 -191 -701q49 -8 88 -8q127 0 253 61t229 167t183 239.5t124.5 288.5t44.5 305q0 241 -113 362t-307 121 q-200 0 -334.5 -115t-134.5 -284q0 -46 10 -76q-64 0 -93.5 32t-29.5 83q0 56 32.5 116t93 113t139 95t178 67t201.5 25q134 0 234 -43t159.5 -120.5t88 -177t28.5 -221.5q0 -145 -40 -286.5t-108.5 -260t-164 -220.5t-203.5 -173t-229 -111t-239 -40q-155 0 -219 92 q52 253 181 668q-91 0 -232 -21z" />
<glyph unicode="&#xd1;" horiz-adv-x="1183" d="M2 -178q29 110 82 283t152 496t200 667q15 52 15 84q0 47 -31 47q-62 0 -119 -64t-88 -148t-31 -153q0 -38 11 -71q-64 0 -93.5 31.5t-29.5 84.5q0 67 42 140t103 128.5t133.5 91.5t130.5 36q24 0 45.5 -8.5t39 -27t32 -39.5t27.5 -56t22.5 -64t19 -77t15.5 -83t13.5 -92 t12 -93.5t11.5 -98.5q43 -374 90 -689q37 251 163.5 693t166.5 534q13 33 50.5 67t78.5 34q-120 -317 -262.5 -873.5t-145.5 -779.5q-66 0 -104.5 38t-55.5 128q-51 272 -186 1218q-238 -853 -304 -1054q-80 -243 -137 -300q-30 -30 -69 -30zM543 1554q72 95 170 95 q53 0 184.5 -45t212.5 -45q31 0 61 6q-66 -74 -159 -74q-57 0 -183 40t-192 40q-50 0 -94 -17z" />
<glyph unicode="&#xd2;" horiz-adv-x="1265" d="M0 330q0 154 50 320t136.5 310.5t193.5 261t230.5 184t237.5 67.5q75 0 123 -25h-23q-102 0 -214 -70.5t-209 -190.5t-175.5 -266t-124 -310t-45.5 -310q0 -115 27 -204.5t91 -147.5t157 -58q111 0 215 72t182.5 191t138 267.5t90.5 308t31 304.5q0 105 -22.5 194 t-69.5 89t-107.5 -78t-106.5 -179t-63 -181q-98 22 -98 100q0 70 64 164t153 161.5t154 67.5q50 0 86 -38t54 -100.5t26 -126t8 -130.5q0 -215 -51 -405t-134.5 -324.5t-188.5 -232.5t-213.5 -145.5t-209.5 -47.5q-176 0 -284.5 139.5t-108.5 368.5zM852 1769q5 64 45 64 q38 0 90 -52.5t87.5 -111.5t35.5 -84q0 -12 -8 -29t-21 -24q-75 102 -229 237z" />
<glyph unicode="&#xd3;" horiz-adv-x="1265" d="M0 330q0 154 50 320t136.5 310.5t193.5 261t230.5 184t237.5 67.5q75 0 123 -25h-23q-102 0 -214 -70.5t-209 -190.5t-175.5 -266t-124 -310t-45.5 -310q0 -115 27 -204.5t91 -147.5t157 -58q111 0 215 72t182.5 191t138 267.5t90.5 308t31 304.5q0 105 -22.5 194 t-69.5 89t-107.5 -78t-106.5 -179t-63 -181q-98 22 -98 100q0 70 64 164t153 161.5t154 67.5q50 0 86 -38t54 -100.5t26 -126t8 -130.5q0 -215 -51 -405t-134.5 -324.5t-188.5 -232.5t-213.5 -145.5t-209.5 -47.5q-176 0 -284.5 139.5t-108.5 368.5zM1112 1585q0 25 35.5 84 t87.5 111.5t90 52.5q40 0 45 -64q-154 -135 -229 -237q-13 7 -21 24t-8 29z" />
<glyph unicode="&#xd4;" horiz-adv-x="1265" d="M0 330q0 154 50 320t136.5 310.5t193.5 261t230.5 184t237.5 67.5q75 0 123 -25h-23q-102 0 -214 -70.5t-209 -190.5t-175.5 -266t-124 -310t-45.5 -310q0 -115 27 -204.5t91 -147.5t157 -58q111 0 215 72t182.5 191t138 267.5t90.5 308t31 304.5q0 105 -22.5 194 t-69.5 89t-107.5 -78t-106.5 -179t-63 -181q-98 22 -98 100q0 70 64 164t153 161.5t154 67.5q50 0 86 -38t54 -100.5t26 -126t8 -130.5q0 -215 -51 -405t-134.5 -324.5t-188.5 -232.5t-213.5 -145.5t-209.5 -47.5q-176 0 -284.5 139.5t-108.5 368.5zM811 1634q0 37 47 81 t102 72t84 28q50 0 117.5 -81.5t67.5 -146.5q0 -46 -35 -63q-27 54 -61.5 95t-90.5 93q-138 -51 -211 -117q-20 13 -20 39z" />
<glyph unicode="&#xd5;" horiz-adv-x="1265" d="M0 330q0 154 50 320t136.5 310.5t193.5 261t230.5 184t237.5 67.5q75 0 123 -25h-23q-102 0 -214 -70.5t-209 -190.5t-175.5 -266t-124 -310t-45.5 -310q0 -115 27 -204.5t91 -147.5t157 -58q111 0 215 72t182.5 191t138 267.5t90.5 308t31 304.5q0 105 -22.5 194 t-69.5 89t-107.5 -78t-106.5 -179t-63 -181q-98 22 -98 100q0 70 64 164t153 161.5t154 67.5q50 0 86 -38t54 -100.5t26 -126t8 -130.5q0 -215 -51 -405t-134.5 -324.5t-188.5 -232.5t-213.5 -145.5t-209.5 -47.5q-176 0 -284.5 139.5t-108.5 368.5zM727 1554q72 95 170 95 q53 0 184.5 -45t212.5 -45q32 0 62 6q-66 -74 -160 -74q-57 0 -183 40t-192 40q-50 0 -94 -17z" />
<glyph unicode="&#xd6;" horiz-adv-x="1265" d="M0 330q0 154 50 320t136.5 310.5t193.5 261t230.5 184t237.5 67.5q75 0 123 -25h-23q-102 0 -214 -70.5t-209 -190.5t-175.5 -266t-124 -310t-45.5 -310q0 -115 27 -204.5t91 -147.5t157 -58q111 0 215 72t182.5 191t138 267.5t90.5 308t31 304.5q0 105 -22.5 194 t-69.5 89t-107.5 -78t-106.5 -179t-63 -181q-98 22 -98 100q0 70 64 164t153 161.5t154 67.5q50 0 86 -38t54 -100.5t26 -126t8 -130.5q0 -215 -51 -405t-134.5 -324.5t-188.5 -232.5t-213.5 -145.5t-209.5 -47.5q-176 0 -284.5 139.5t-108.5 368.5zM756 1647 q0 37 44.5 66.5t90.5 29.5q61 0 61 -57q0 -36 -38.5 -68.5t-82.5 -32.5q-33 0 -54 15.5t-21 46.5zM1051 1604q0 37 44.5 66.5t90.5 29.5q61 0 61 -58q0 -36 -38.5 -68t-82.5 -32q-33 0 -54 15.5t-21 46.5z" />
<glyph unicode="&#xd7;" d="M250 88q0 47 40.5 108.5t117.5 145.5q-142 152 -142 236q0 20 8 36q76 -105 187 -219q134 134 256 230q-14 -98 -107 -191l-92 -94l109 -109q89 -94 106 -190q-127 100 -256 229l-16 15q-115 -115 -203 -234q-8 16 -8 37z" />
<glyph unicode="&#xd8;" horiz-adv-x="1265" d="M0 330q0 154 50 320t136.5 310.5t193.5 261t230.5 184t237.5 67.5q75 0 123 -25h-23q-102 0 -214 -70.5t-209 -190.5t-175.5 -266t-124 -310t-45.5 -310q0 -171 58 -276q279 347 845 1220q-25 72 -63 72q-47 0 -107.5 -78t-106.5 -179t-63 -181q-98 22 -98 100 q0 70 64 164t153 161.5t154 67.5q64 0 106 -65l8 10q14 22 61 39.5t93 17.5q23 0 33 -2q-121 -181 -143 -213q16 -81 16 -182q0 -215 -51 -405t-134.5 -324.5t-188.5 -232.5t-213.5 -145.5t-209.5 -47.5q-90 0 -166 39q-95 -68 -176 -68q-13 0 -33 4q45 31 127 123 q-145 136 -145 410zM313 -66q62 -43 142 -43q111 0 215 72t182.5 191t138 267.5t90.5 308t31 304.5v33q-424 -627 -666 -973q-74 -104 -133 -160z" />
<glyph unicode="&#xd9;" horiz-adv-x="1366" d="M0 1104q0 85 52.5 170.5t144.5 143t194 57.5q211 0 211 -248q0 -101 -39.5 -258t-86.5 -295t-86.5 -292t-39.5 -249q0 -102 42.5 -165.5t129.5 -63.5q80 0 152.5 54.5t125 142.5t88.5 177.5t58 180.5q24 99 39.5 162.5t41.5 167t46 173t46 157t48.5 144.5t46.5 109 t46.5 77.5t42.5 25.5q39 0 102 -66q-36 -24 -126.5 -268.5t-170.5 -560.5t-80 -494q0 -138 37 -189t127 -51q-71 -49 -135 -49q-74 0 -120 63t-46 154q0 64 18 187q-173 -379 -442 -379q-128 0 -197 77.5t-69 200.5q0 88 40 246t88 306t88 315t40 270q0 180 -115 180 q-52 0 -95.5 -36t-69 -91.5t-39 -114.5t-13.5 -112q0 -60 16 -100q-74 0 -107.5 38.5t-33.5 102.5zM811 1769q5 64 45 64q38 0 90 -52.5t87.5 -111.5t35.5 -84q0 -12 -8 -29t-21 -24q-75 102 -229 237z" />
<glyph unicode="&#xda;" horiz-adv-x="1366" d="M0 1104q0 85 52.5 170.5t144.5 143t194 57.5q211 0 211 -248q0 -101 -39.5 -258t-86.5 -295t-86.5 -292t-39.5 -249q0 -102 42.5 -165.5t129.5 -63.5q80 0 152.5 54.5t125 142.5t88.5 177.5t58 180.5q24 99 39.5 162.5t41.5 167t46 173t46 157t48.5 144.5t46.5 109 t46.5 77.5t42.5 25.5q39 0 102 -66q-36 -24 -126.5 -268.5t-170.5 -560.5t-80 -494q0 -138 37 -189t127 -51q-71 -49 -135 -49q-74 0 -120 63t-46 154q0 64 18 187q-173 -379 -442 -379q-128 0 -197 77.5t-69 200.5q0 88 40 246t88 306t88 315t40 270q0 180 -115 180 q-52 0 -95.5 -36t-69 -91.5t-39 -114.5t-13.5 -112q0 -60 16 -100q-74 0 -107.5 38.5t-33.5 102.5zM897 1585q0 25 35.5 84t87.5 111.5t90 52.5q40 0 45 -64q-154 -135 -229 -237q-13 7 -21 24t-8 29z" />
<glyph unicode="&#xdb;" horiz-adv-x="1366" d="M0 1104q0 85 52.5 170.5t144.5 143t194 57.5q211 0 211 -248q0 -101 -39.5 -258t-86.5 -295t-86.5 -292t-39.5 -249q0 -102 42.5 -165.5t129.5 -63.5q80 0 152.5 54.5t125 142.5t88.5 177.5t58 180.5q24 99 39.5 162.5t41.5 167t46 173t46 157t48.5 144.5t46.5 109 t46.5 77.5t42.5 25.5q39 0 102 -66q-36 -24 -126.5 -268.5t-170.5 -560.5t-80 -494q0 -138 37 -189t127 -51q-71 -49 -135 -49q-74 0 -120 63t-46 154q0 64 18 187q-173 -379 -442 -379q-128 0 -197 77.5t-69 200.5q0 88 40 246t88 306t88 315t40 270q0 180 -115 180 q-52 0 -95.5 -36t-69 -91.5t-39 -114.5t-13.5 -112q0 -60 16 -100q-74 0 -107.5 38.5t-33.5 102.5zM737 1634q0 37 47.5 81t102.5 72t84 28q50 0 117 -81.5t67 -146.5q0 -46 -35 -63q-27 55 -61.5 96t-89.5 92q-138 -51 -211 -117q-21 13 -21 39z" />
<glyph unicode="&#xdc;" horiz-adv-x="1366" d="M0 1104q0 85 52.5 170.5t144.5 143t194 57.5q211 0 211 -248q0 -101 -39.5 -258t-86.5 -295t-86.5 -292t-39.5 -249q0 -102 42.5 -165.5t129.5 -63.5q80 0 152.5 54.5t125 142.5t88.5 177.5t58 180.5q24 99 39.5 162.5t41.5 167t46 173t46 157t48.5 144.5t46.5 109 t46.5 77.5t42.5 25.5q39 0 102 -66q-36 -24 -126.5 -268.5t-170.5 -560.5t-80 -494q0 -138 37 -189t127 -51q-71 -49 -135 -49q-74 0 -120 63t-46 154q0 64 18 187q-173 -379 -442 -379q-128 0 -197 77.5t-69 200.5q0 88 40 246t88 306t88 315t40 270q0 180 -115 180 q-52 0 -95.5 -36t-69 -91.5t-39 -114.5t-13.5 -112q0 -60 16 -100q-74 0 -107.5 38.5t-33.5 102.5zM733 1647q0 37 44.5 66.5t90.5 29.5q62 0 62 -57q0 -36 -38.5 -68.5t-82.5 -32.5q-33 0 -54.5 15.5t-21.5 46.5zM1028 1604q0 37 44.5 66.5t90.5 29.5q62 0 62 -58 q0 -36 -38.5 -68t-82.5 -32q-33 0 -54.5 15.5t-21.5 46.5z" />
<glyph unicode="&#xdd;" horiz-adv-x="1327" d="M0 1104q0 85 52.5 170.5t144.5 143t194 57.5q108 0 160.5 -61.5t52.5 -145.5q0 -62 -34 -187t-68.5 -262.5t-34.5 -230.5q0 -197 143 -197q68 0 134 45t121 122.5t98 161t81 181.5q139 574 246 574q21 0 54 -18t61 -48q-103 -164 -156 -326t-182 -686q-24 -97 -39.5 -155 t-46 -151t-59.5 -150t-75 -125.5t-97 -107t-122 -65t-153 -26.5q-122 0 -202 51t-80 142q0 111 122 153q-16 -55 -16 -110q0 -87 45.5 -136t132.5 -49q57 0 108.5 22.5t89.5 58t72.5 87.5t58 102t44 111t32.5 105.5t23 93.5q8 36 36.5 180.5t49.5 239.5 q-89 -170 -197 -264.5t-247 -94.5q-116 0 -169.5 65t-53.5 179q0 72 21.5 174.5t48 188.5t48 182.5t21.5 158.5q0 71 -27.5 115.5t-89.5 44.5q-54 0 -98 -36t-70 -91t-39.5 -114.5t-13.5 -112.5q0 -60 16 -100q-74 0 -107.5 38.5t-33.5 102.5zM920 1585q0 25 35.5 84 t87.5 111.5t90 52.5q40 0 45 -64q-156 -137 -230 -237q-13 7 -20.5 24t-7.5 29z" />
<glyph unicode="&#xde;" horiz-adv-x="1040" d="M14 -76q0 24 29 113q225 705 383 1100q-74 -12 -145.5 -41.5t-112.5 -52.5t-49 -23q-13 0 -38.5 20.5t-25.5 34.5q227 96 389 109q7 17 25 64.5t31.5 78t33.5 66.5t43.5 54.5t49.5 18.5t53 -16q-58 -113 -115 -264q88 -8 169.5 -36.5t149.5 -76t109 -120.5t41 -160 q0 -81 -31.5 -150t-81.5 -115.5t-118.5 -84t-136 -59t-142.5 -36.5t-128 -21t-101 -8q-17 -61 -65.5 -238t-73.5 -259q-55 0 -98.5 29.5t-43.5 72.5zM305 358q89 10 171.5 33t160 63t134.5 91.5t91.5 124.5t34.5 157q0 77 -28 137.5t-77 98t-110.5 57.5t-132.5 23 q-96 -265 -244 -785z" />
<glyph unicode="&#xdf;" horiz-adv-x="1089" d="M49 -236q20 27 40.5 118t37.5 215t42.5 276.5t54.5 304.5t75 296.5t100.5 255t135 178t176.5 67.5q94 0 154.5 -61t60.5 -165q0 -73 -29.5 -145t-78.5 -131t-101 -104.5t-109 -82.5q-24 -15 -24 -26q0 -12 26 -23q112 -49 189.5 -182.5t77.5 -253.5q0 -107 -56.5 -219 t-147 -186t-181.5 -74q-68 0 -106 80t-38 188q0 99 33.5 171.5t91.5 72.5q23 0 33 -2q-31 -17 -52.5 -106.5t-21.5 -186.5q0 -77 15.5 -126.5t46.5 -49.5q52 0 107.5 70.5t92.5 181t37 215.5q0 113 -44 218.5t-116 160.5q-41 30 -41 53q0 25 50 69q41 38 68.5 66.5t62 72 t55 83.5t35 92t14.5 106q0 72 -27.5 120t-93.5 48q-83 0 -147.5 -86t-106 -225.5t-75 -309t-63.5 -343t-62.5 -320.5t-81 -249.5t-109.5 -121.5z" />
<glyph unicode="&#xe0;" horiz-adv-x="894" d="M-90 74q0 72 33 158.5t90.5 168t128.5 150t154.5 110t160.5 41.5q81 0 134 -42.5t53 -110.5q0 -88 -101 -88q10 38 10 71q0 51 -24 83t-76 32q-91 0 -192.5 -103.5t-165.5 -239.5t-64 -236q0 -80 55 -80q36 0 85.5 34.5t91 78t97.5 115.5t84.5 113t72.5 105 q27 -4 54 -17.5t27 -33.5q0 -18 -29.5 -69.5t-59 -112.5t-29.5 -103q0 -35 17.5 -62.5t51.5 -27.5q60 0 150.5 85t177.5 239l21 -21q-64 -163 -179.5 -267.5t-226.5 -104.5q-71 0 -109 42t-38 101q0 24 6 59q-93 -123 -165 -180t-145 -57q-68 0 -109.5 43.5t-41.5 126.5z M399 1077q5 64 45 64q38 0 90 -52.5t87.5 -111.5t35.5 -84q0 -12 -7.5 -29t-20.5 -24q-74 100 -230 237z" />
<glyph unicode="&#xe1;" horiz-adv-x="894" d="M-90 74q0 72 33 158.5t90.5 168t128.5 150t154.5 110t160.5 41.5q81 0 134 -42.5t53 -110.5q0 -88 -101 -88q10 38 10 71q0 51 -24 83t-76 32q-91 0 -192.5 -103.5t-165.5 -239.5t-64 -236q0 -80 55 -80q36 0 85.5 34.5t91 78t97.5 115.5t84.5 113t72.5 105 q27 -4 54 -17.5t27 -33.5q0 -18 -29.5 -69.5t-59 -112.5t-29.5 -103q0 -35 17.5 -62.5t51.5 -27.5q60 0 150.5 85t177.5 239l21 -21q-64 -163 -179.5 -267.5t-226.5 -104.5q-71 0 -109 42t-38 101q0 24 6 59q-93 -123 -165 -180t-145 -57q-68 0 -109.5 43.5t-41.5 126.5z M545 907q0 25 35.5 84t87.5 111.5t90 52.5q40 0 45 -63q-154 -135 -230 -238q-13 7 -20.5 24t-7.5 29z" />
<glyph unicode="&#xe2;" horiz-adv-x="894" d="M-90 74q0 72 33 158.5t90.5 168t128.5 150t154.5 110t160.5 41.5q81 0 134 -42.5t53 -110.5q0 -88 -101 -88q10 38 10 71q0 51 -24 83t-76 32q-91 0 -192.5 -103.5t-165.5 -239.5t-64 -236q0 -80 55 -80q36 0 85.5 34.5t91 78t97.5 115.5t84.5 113t72.5 105 q27 -4 54 -17.5t27 -33.5q0 -18 -29.5 -69.5t-59 -112.5t-29.5 -103q0 -35 17.5 -62.5t51.5 -27.5q60 0 150.5 85t177.5 239l21 -21q-64 -163 -179.5 -267.5t-226.5 -104.5q-71 0 -109 42t-38 101q0 24 6 59q-93 -123 -165 -180t-145 -57q-68 0 -109.5 43.5t-41.5 126.5z M418 942q0 37 47 81t102 71.5t84 27.5q50 0 117.5 -81t67.5 -146q0 -47 -35 -64q-27 54 -62 96t-90 93q-138 -51 -211 -117q-20 13 -20 39z" />
<glyph unicode="&#xe3;" horiz-adv-x="894" d="M-90 74q0 72 33 158.5t90.5 168t128.5 150t154.5 110t160.5 41.5q81 0 134 -42.5t53 -110.5q0 -88 -101 -88q10 38 10 71q0 51 -24 83t-76 32q-91 0 -192.5 -103.5t-165.5 -239.5t-64 -236q0 -80 55 -80q36 0 85.5 34.5t91 78t97.5 115.5t84.5 113t72.5 105 q27 -4 54 -17.5t27 -33.5q0 -18 -29.5 -69.5t-59 -112.5t-29.5 -103q0 -35 17.5 -62.5t51.5 -27.5q60 0 150.5 85t177.5 239l21 -21q-64 -163 -179.5 -267.5t-226.5 -104.5q-71 0 -109 42t-38 101q0 24 6 59q-93 -123 -165 -180t-145 -57q-68 0 -109.5 43.5t-41.5 126.5z M250 877q71 94 170 94q53 0 184.5 -45t212.5 -45q32 0 62 6q-66 -74 -160 -74q-57 0 -183 40t-192 40q-53 0 -94 -16z" />
<glyph unicode="&#xe4;" horiz-adv-x="894" d="M-90 74q0 72 33 158.5t90.5 168t128.5 150t154.5 110t160.5 41.5q81 0 134 -42.5t53 -110.5q0 -88 -101 -88q10 38 10 71q0 51 -24 83t-76 32q-91 0 -192.5 -103.5t-165.5 -239.5t-64 -236q0 -80 55 -80q36 0 85.5 34.5t91 78t97.5 115.5t84.5 113t72.5 105 q27 -4 54 -17.5t27 -33.5q0 -18 -29.5 -69.5t-59 -112.5t-29.5 -103q0 -35 17.5 -62.5t51.5 -27.5q60 0 150.5 85t177.5 239l21 -21q-64 -163 -179.5 -267.5t-226.5 -104.5q-71 0 -109 42t-38 101q0 24 6 59q-93 -123 -165 -180t-145 -57q-68 0 -109.5 43.5t-41.5 126.5z M279 954q0 37 44.5 67t90.5 30q61 0 61 -58q0 -36 -38.5 -68t-82.5 -32q-33 0 -54 15t-21 46zM573 911q0 37 45 67t91 30q61 0 61 -58q0 -36 -38.5 -68t-82.5 -32q-33 0 -54.5 15t-21.5 46z" />
<glyph unicode="&#xe5;" horiz-adv-x="894" d="M-90 74q0 72 33 158.5t90.5 168t128.5 150t154.5 110t160.5 41.5q81 0 134 -42.5t53 -110.5q0 -88 -101 -88q10 38 10 71q0 51 -24 83t-76 32q-91 0 -192.5 -103.5t-165.5 -239.5t-64 -236q0 -80 55 -80q36 0 85.5 34.5t91 78t97.5 115.5t84.5 113t72.5 105 q27 -4 54 -17.5t27 -33.5q0 -18 -29.5 -69.5t-59 -112.5t-29.5 -103q0 -35 17.5 -62.5t51.5 -27.5q60 0 150.5 85t177.5 239l21 -21q-64 -163 -179.5 -267.5t-226.5 -104.5q-71 0 -109 42t-38 101q0 24 6 59q-93 -123 -165 -180t-145 -57q-68 0 -109.5 43.5t-41.5 126.5z M406 924q0 79 75 154t174 75q80 0 118 -30.5t38 -80.5q0 -78 -79 -153.5t-179 -75.5q-75 0 -111 31t-36 80zM485 938q0 -32 22.5 -58t63.5 -26q58 0 111 60t53 116q0 32 -23.5 54t-66.5 22q-60 0 -110 -55t-50 -113z" />
<glyph unicode="&#xe6;" horiz-adv-x="1114" d="M-90 74q0 72 33 158.5t90.5 168t128.5 150t154.5 110t160.5 41.5q112 0 141 -86q137 121 269 121q127 0 127 -125q0 -61 -30.5 -119t-81.5 -104.5t-116.5 -83.5t-137.5 -60t-142 -30q-8 -36 -8 -74q0 -74 37 -123t124 -49q126 0 252.5 104.5t206.5 258.5l25 -19 q-83 -183 -228 -293t-299 -110q-117 0 -181.5 62.5t-67.5 162.5q-91 -119 -163 -175t-143 -56q-68 0 -109.5 43.5t-41.5 126.5zM51 68q0 -80 55 -80q97 0 265 215q13 91 66.5 189t131.5 177q-17 78 -96 78q-91 0 -192.5 -103.5t-165.5 -239.5t-64 -236zM516 254 q60 21 125.5 56t131.5 82.5t108.5 110t42.5 124.5q0 25 -9 36t-34 11q-63 0 -139 -64t-137.5 -161.5t-88.5 -194.5z" />
<glyph unicode="&#xe7;" horiz-adv-x="663" d="M-47 147q0 100 41 200.5t104.5 175.5t144.5 122t158 47q78 0 112 -44t34 -107q0 -62 -28.5 -106t-74.5 -44q-35 0 -59 31q30 15 53 65t23 97q0 26 -10 38.5t-35 12.5q-70 0 -150 -83t-133 -202t-53 -217q0 -73 34 -121.5t115 -48.5q124 0 247 102t188 269l26 -21 q-67 -174 -201 -295l-69 -106q71 49 137 49q92 0 92 -86q0 -89 -72.5 -159t-166.5 -70q-58 0 -91.5 21t-33.5 52q0 35 45 68q10 -47 33.5 -69.5t52.5 -22.5q57 0 113.5 61t56.5 117q0 19 -8.5 35t-26.5 16q-31 0 -98 -42t-76 -42q-12 0 -20.5 12.5t-8.5 24.5q0 8 47 74 q-113 -66 -213 -66q-103 0 -166 67.5t-63 194.5z" />
<glyph unicode="&#xe8;" horiz-adv-x="684" d="M-66 147q0 89 48 194.5t121.5 192.5t169 145t182.5 58q127 0 127 -125q0 -61 -30.5 -119t-81.5 -104.5t-116.5 -83.5t-137.5 -60t-142 -30q-8 -36 -8 -74q0 -74 37 -123t124 -49q126 0 252.5 104.5t206.5 258.5l25 -19q-83 -183 -228 -293t-299 -110q-120 0 -185 66.5 t-65 170.5zM84 254q60 21 125.5 56t131.5 82.5t108.5 110t42.5 124.5q0 25 -9 36t-34 11q-63 0 -139 -64t-137.5 -161.5t-88.5 -194.5zM315 1094q5 63 45 63q38 0 90 -52.5t87.5 -111.5t35.5 -84q0 -12 -7.5 -29t-20.5 -24q-76 103 -230 238z" />
<glyph unicode="&#xe9;" horiz-adv-x="684" d="M-66 147q0 89 48 194.5t121.5 192.5t169 145t182.5 58q127 0 127 -125q0 -61 -30.5 -119t-81.5 -104.5t-116.5 -83.5t-137.5 -60t-142 -30q-8 -36 -8 -74q0 -74 37 -123t124 -49q126 0 252.5 104.5t206.5 258.5l25 -19q-83 -183 -228 -293t-299 -110q-120 0 -185 66.5 t-65 170.5zM84 254q60 21 125.5 56t131.5 82.5t108.5 110t42.5 124.5q0 25 -9 36t-34 11q-63 0 -139 -64t-137.5 -161.5t-88.5 -194.5zM561 932q0 25 35.5 84t87.5 111.5t90 52.5q40 0 45 -64q-154 -135 -229 -237q-13 7 -21 24t-8 29z" />
<glyph unicode="&#xea;" horiz-adv-x="684" d="M-66 147q0 89 48 194.5t121.5 192.5t169 145t182.5 58q127 0 127 -125q0 -61 -30.5 -119t-81.5 -104.5t-116.5 -83.5t-137.5 -60t-142 -30q-8 -36 -8 -74q0 -74 37 -123t124 -49q126 0 252.5 104.5t206.5 258.5l25 -19q-83 -183 -228 -293t-299 -110q-120 0 -185 66.5 t-65 170.5zM84 254q60 21 125.5 56t131.5 82.5t108.5 110t42.5 124.5q0 25 -9 36t-34 11q-63 0 -139 -64t-137.5 -161.5t-88.5 -194.5zM336 942q0 37 47 81t102 71.5t84 27.5q50 0 117.5 -81t67.5 -146q0 -47 -35 -64q-27 54 -62 96t-90 93q-138 -51 -211 -117 q-20 13 -20 39z" />
<glyph unicode="&#xeb;" horiz-adv-x="684" d="M-66 147q0 89 48 194.5t121.5 192.5t169 145t182.5 58q127 0 127 -125q0 -61 -30.5 -119t-81.5 -104.5t-116.5 -83.5t-137.5 -60t-142 -30q-8 -36 -8 -74q0 -74 37 -123t124 -49q126 0 252.5 104.5t206.5 258.5l25 -19q-83 -183 -228 -293t-299 -110q-120 0 -185 66.5 t-65 170.5zM84 254q60 21 125.5 56t131.5 82.5t108.5 110t42.5 124.5q0 25 -9 36t-34 11q-63 0 -139 -64t-137.5 -161.5t-88.5 -194.5zM244 954q0 37 44.5 67t90.5 30q61 0 61 -58q0 -36 -38.5 -68t-82.5 -32q-33 0 -54 15t-21 46zM539 911q0 37 44.5 67t90.5 30 q61 0 61 -58q0 -36 -38.5 -68t-82.5 -32q-33 0 -54 15t-21 46z" />
<glyph unicode="&#xec;" horiz-adv-x="495" d="M-47 119q0 59 27 156t68 190t96 161t104 68q19 0 32 -12t13 -33t-33.5 -81t-73 -125.5t-73 -150.5t-33.5 -151q0 -71 23.5 -97t76.5 -26q158 0 316 314l18 -21q-58 -172 -168.5 -268t-234.5 -96q-76 0 -117 48t-41 124zM147 1087q5 64 46 64q38 0 90 -52.5t87.5 -111.5 t35.5 -84q0 -12 -8 -29t-21 -24q-74 100 -230 237z" />
<glyph unicode="&#xed;" horiz-adv-x="495" d="M-47 119q0 59 27 156t68 190t96 161t104 68q19 0 32 -12t13 -33t-33.5 -81t-73 -125.5t-73 -150.5t-33.5 -151q0 -71 23.5 -97t76.5 -26q158 0 316 314l18 -21q-58 -172 -168.5 -268t-234.5 -96q-76 0 -117 48t-41 124zM299 893q0 25 35.5 84t87.5 111.5t90 52.5 q40 0 45 -64q-154 -135 -229 -237q-13 7 -21 24t-8 29z" />
<glyph unicode="&#xee;" horiz-adv-x="495" d="M-47 119q0 59 27 156t68 190t96 161t104 68q19 0 32 -12t13 -33t-33.5 -81t-73 -125.5t-73 -150.5t-33.5 -151q0 -71 23.5 -97t76.5 -26q158 0 316 314l18 -21q-58 -172 -168.5 -268t-234.5 -96q-76 0 -117 48t-41 124zM168 942q0 37 47 81t102 71.5t84 27.5 q50 0 117.5 -81t67.5 -146q0 -47 -35 -64q-27 54 -62 96t-90 93q-138 -51 -211 -117q-20 13 -20 39z" />
<glyph unicode="&#xef;" horiz-adv-x="495" d="M-47 119q0 59 27 156t68 190t96 161t104 68q19 0 32 -12t13 -33t-33.5 -81t-73 -125.5t-73 -150.5t-33.5 -151q0 -71 23.5 -97t76.5 -26q158 0 316 314l18 -21q-58 -172 -168.5 -268t-234.5 -96q-76 0 -117 48t-41 124zM84 954q0 37 44.5 67t90.5 30q62 0 62 -58 q0 -36 -38.5 -68t-82.5 -32q-33 0 -54.5 15t-21.5 46zM379 911q0 37 44.5 67t90.5 30q61 0 61 -58q0 -36 -38 -68t-82 -32q-33 0 -54.5 15t-21.5 46z" />
<glyph unicode="&#xf0;" horiz-adv-x="970" d="M-70 111q0 67 32.5 152t89 167t125.5 151.5t150 112.5t154 43q90 0 90 -63q0 -9 -4 -29q-22 31 -78 31q-78 0 -157 -62t-134 -149.5t-89.5 -178.5t-34.5 -151q0 -46 19.5 -72t53.5 -26q90 0 224 168t221 395q92 238 92 401q0 48 -8 89q-130 -18 -236 -48q0 29 17 50 t52.5 33.5t67.5 19.5t85 14q-43 156 -179 275q29 39 80 39q59 0 110 -45t82.5 -109t51.5 -143q135 9 186 24q-30 -50 -62.5 -65t-111.5 -25q8 -47 8 -96q0 -93 -36 -225.5t-78.5 -243.5t-78.5 -232.5t-36 -195.5q0 -88 57 -88q67 0 161 85t155 218l24 -19 q-59 -156 -175 -261t-222 -105q-70 0 -102.5 45t-32.5 108q0 72 39 219q-104 -171 -215.5 -275.5t-202.5 -104.5q-60 0 -107 44t-47 128z" />
<glyph unicode="&#xf1;" horiz-adv-x="956" d="M-115 14q0 6 36 96t72.5 210t37.5 198q14 16 40.5 29.5t53.5 13.5q55 0 55 -53q0 -71 -65 -270q45 69 91.5 127.5t102.5 113.5t116 87t116 32q74 0 112.5 -54t38.5 -130q0 -67 -42 -172t-42 -152q0 -78 62 -78q126 0 286 320l23 -27q-148 -346 -354 -346q-70 0 -107 36 t-37 95q0 40 30 138t30 147q0 100 -82 100q-35 0 -74.5 -20t-72.5 -47t-75 -77t-68.5 -85.5t-67 -99t-56.5 -91t-51 -86.5q-76 0 -109 45zM164 862q71 94 170 94q53 0 184.5 -45t212.5 -45q32 0 62 6q-65 -73 -160 -73q-57 0 -183 40t-192 40q-50 0 -94 -17z" />
<glyph unicode="&#xf2;" horiz-adv-x="829" d="M-61 113q0 81 44 186.5t111.5 199t160 158t179.5 64.5q67 0 88 -43q4 2 15 2q34 0 51.5 -27t17.5 -53q0 -20 -20 -62t-40 -95.5t-20 -100.5q0 -75 43.5 -122.5t100.5 -47.5q88 0 161 156l27 -21q-76 -176 -205 -176q-59 0 -110.5 37t-81.5 106q-67 -156 -161 -248 t-198 -92q-76 0 -119.5 49.5t-43.5 129.5zM70 127q0 -48 20.5 -76t56.5 -28q69 0 153 91t140 224q-12 50 -12 117q0 127 39 186q-66 0 -129.5 -38.5t-110.5 -98t-83.5 -129t-55 -135t-18.5 -113.5zM346 1077q5 64 45 64q38 0 90 -52.5t87.5 -111.5t35.5 -84q0 -12 -8 -29 t-21 -24q-75 102 -229 237z" />
<glyph unicode="&#xf3;" horiz-adv-x="829" d="M-61 113q0 81 44 186.5t111.5 199t160 158t179.5 64.5q67 0 88 -43q4 2 15 2q34 0 51.5 -27t17.5 -53q0 -20 -20 -62t-40 -95.5t-20 -100.5q0 -75 43.5 -122.5t100.5 -47.5q88 0 161 156l27 -21q-76 -176 -205 -176q-59 0 -110.5 37t-81.5 106q-67 -156 -161 -248 t-198 -92q-76 0 -119.5 49.5t-43.5 129.5zM70 127q0 -48 20.5 -76t56.5 -28q69 0 153 91t140 224q-12 50 -12 117q0 127 39 186q-66 0 -129.5 -38.5t-110.5 -98t-83.5 -129t-55 -135t-18.5 -113.5zM647 901q0 25 35.5 84t87.5 111.5t90 52.5q40 0 45 -64 q-154 -135 -229 -237q-13 7 -21 24t-8 29z" />
<glyph unicode="&#xf4;" horiz-adv-x="829" d="M-61 113q0 81 44 186.5t111.5 199t160 158t179.5 64.5q67 0 88 -43q4 2 15 2q34 0 51.5 -27t17.5 -53q0 -20 -20 -62t-40 -95.5t-20 -100.5q0 -75 43.5 -122.5t100.5 -47.5q88 0 161 156l27 -21q-76 -176 -205 -176q-59 0 -110.5 37t-81.5 106q-67 -156 -161 -248 t-198 -92q-76 0 -119.5 49.5t-43.5 129.5zM70 127q0 -48 20.5 -76t56.5 -28q69 0 153 91t140 224q-12 50 -12 117q0 127 39 186q-66 0 -129.5 -38.5t-110.5 -98t-83.5 -129t-55 -135t-18.5 -113.5zM326 942q0 37 47 81t102 71.5t84 27.5q50 0 117 -81t67 -146q0 -48 -34 -64 q-27 54 -62 96t-90 93q-138 -51 -211 -117q-20 13 -20 39z" />
<glyph unicode="&#xf5;" horiz-adv-x="829" d="M-61 113q0 81 44 186.5t111.5 199t160 158t179.5 64.5q67 0 88 -43q4 2 15 2q34 0 51.5 -27t17.5 -53q0 -20 -20 -62t-40 -95.5t-20 -100.5q0 -75 43.5 -122.5t100.5 -47.5q88 0 161 156l27 -21q-76 -176 -205 -176q-59 0 -110.5 37t-81.5 106q-67 -156 -161 -248 t-198 -92q-76 0 -119.5 49.5t-43.5 129.5zM70 127q0 -48 20.5 -76t56.5 -28q69 0 153 91t140 224q-12 50 -12 117q0 127 39 186q-66 0 -129.5 -38.5t-110.5 -98t-83.5 -129t-55 -135t-18.5 -113.5zM244 862q71 94 170 94q53 0 184.5 -45t212.5 -45q31 0 61 6 q-65 -73 -159 -73q-57 0 -183 40t-192 40q-50 0 -94 -17z" />
<glyph unicode="&#xf6;" horiz-adv-x="829" d="M-61 113q0 81 44 186.5t111.5 199t160 158t179.5 64.5q67 0 88 -43q4 2 15 2q34 0 51.5 -27t17.5 -53q0 -20 -20 -62t-40 -95.5t-20 -100.5q0 -75 43.5 -122.5t100.5 -47.5q88 0 161 156l27 -21q-76 -176 -205 -176q-59 0 -110.5 37t-81.5 106q-67 -156 -161 -248 t-198 -92q-76 0 -119.5 49.5t-43.5 129.5zM70 127q0 -48 20.5 -76t56.5 -28q69 0 153 91t140 224q-12 50 -12 117q0 127 39 186q-66 0 -129.5 -38.5t-110.5 -98t-83.5 -129t-55 -135t-18.5 -113.5zM229 954q0 37 45 67t91 30q61 0 61 -58q0 -36 -38.5 -68t-82.5 -32 q-33 0 -54.5 15t-21.5 46zM524 911q0 37 44.5 67t90.5 30q62 0 62 -58q0 -36 -38.5 -68t-82.5 -32q-33 0 -54.5 15t-21.5 46z" />
<glyph unicode="&#xf7;" d="M119 254q22 57 121 78.5t266 21.5t344 -18q-47 -33 -123 -46.5t-238 -13.5q-224 0 -370 -22zM352 35q0 33 38.5 58.5t80.5 25.5q53 0 53 -49q0 -31 -33.5 -60.5t-72.5 -29.5q-29 0 -47.5 13.5t-18.5 41.5zM475 547q0 33 38.5 58.5t80.5 25.5q53 0 53 -49 q0 -31 -33.5 -60.5t-72.5 -29.5q-29 0 -47.5 13.5t-18.5 41.5z" />
<glyph unicode="&#xf8;" horiz-adv-x="829" d="M-170 -129q52 26 143 123q-34 46 -34 119q0 81 44 186.5t111.5 199t160 158t179.5 64.5q37 0 62 -14l32 55q7 12 36 21.5t57 9.5q4 0 13 -1t13 -1q-5 -7 -16 -24t-28.5 -45t-33.5 -52q18 -12 27.5 -33t9.5 -37q0 -20 -20 -62t-40 -95.5t-20 -100.5q0 -75 43.5 -122.5 t100.5 -47.5q88 0 161 156l27 -21q-76 -176 -205 -176q-59 0 -110.5 37t-81.5 106q-67 -156 -161 -248t-198 -92q-41 0 -75 17q-101 -82 -170 -82q-19 0 -27 2zM70 104q200 245 383 535q-79 -4 -153 -63t-122.5 -140.5t-78 -165.5t-29.5 -143v-23zM115 29q15 -6 32 -6 q69 0 153 91t140 224q-12 47 -12 108q-209 -315 -303 -407z" />
<glyph unicode="&#xf9;" horiz-adv-x="899" d="M-37 145q0 75 32 187t75.5 195t72.5 83q12 0 36 -12t40 -29q-43 -67 -90 -193t-47 -218q0 -18 2.5 -37t9 -44t22.5 -41t40 -16q26 0 56 20.5t60.5 60t58 80.5t59 100t52 99.5t48.5 97.5t38 77q99 -17 99 -53q0 -6 -34.5 -83.5t-69 -177t-34.5 -159.5q0 -82 68 -82 q70 0 170.5 91.5t171.5 240.5l27 -19q-65 -163 -183 -268.5t-229 -105.5q-143 0 -143 151q0 42 14 103q-143 -254 -268 -254q-67 0 -110.5 60.5t-43.5 145.5zM299 1077q5 64 45 64q38 0 90 -52.5t87.5 -111.5t35.5 -84q0 -12 -8 -29t-21 -24q-75 102 -229 237z" />
<glyph unicode="&#xfa;" horiz-adv-x="894" d="M-37 145q0 75 32 187t75.5 195t72.5 83q12 0 36 -12t40 -29q-43 -67 -90 -193t-47 -218q0 -18 2.5 -37t9 -44t22.5 -41t40 -16q26 0 56 20.5t60.5 60t58 80.5t59 100t52 99.5t48.5 97.5t38 77q99 -17 99 -53q0 -6 -34.5 -83.5t-69 -177t-34.5 -159.5q0 -82 68 -82 q70 0 170.5 91.5t171.5 240.5l27 -19q-65 -163 -183 -268.5t-229 -105.5q-143 0 -143 151q0 42 14 103q-143 -254 -268 -254q-67 0 -110.5 60.5t-43.5 145.5zM393 811q0 25 35.5 84t87.5 111.5t90 52.5q40 0 45 -64q-154 -135 -229 -237q-13 7 -21 24t-8 29z" />
<glyph unicode="&#xfb;" horiz-adv-x="899" d="M-37 145q0 75 32 187t75.5 195t72.5 83q12 0 36 -12t40 -29q-43 -67 -90 -193t-47 -218q0 -18 2.5 -37t9 -44t22.5 -41t40 -16q26 0 56 20.5t60.5 60t58 80.5t59 100t52 99.5t48.5 97.5t38 77q99 -17 99 -53q0 -6 -34.5 -83.5t-69 -177t-34.5 -159.5q0 -82 68 -82 q70 0 170.5 91.5t171.5 240.5l27 -19q-65 -163 -183 -268.5t-229 -105.5q-143 0 -143 151q0 42 14 103q-143 -254 -268 -254q-67 0 -110.5 60.5t-43.5 145.5zM319 942q0 37 47.5 81t102.5 71.5t84 27.5q50 0 117 -81t67 -146q0 -47 -35 -64q-27 55 -61.5 97t-89.5 92 q-138 -51 -211 -117q-21 13 -21 39z" />
<glyph unicode="&#xfc;" horiz-adv-x="894" d="M-37 145q0 75 32 187t75.5 195t72.5 83q12 0 36 -12t40 -29q-43 -67 -90 -193t-47 -218q0 -18 2.5 -37t9 -44t22.5 -41t40 -16q26 0 56 20.5t60.5 60t58 80.5t59 100t52 99.5t48.5 97.5t38 77q99 -17 99 -53q0 -6 -34.5 -83.5t-69 -177t-34.5 -159.5q0 -82 68 -82 q70 0 170.5 91.5t171.5 240.5l27 -19q-65 -163 -183 -268.5t-229 -105.5q-143 0 -143 151q0 42 14 103q-143 -254 -268 -254q-67 0 -110.5 60.5t-43.5 145.5zM221 954q0 37 44.5 67t90.5 30q62 0 62 -58q0 -36 -38.5 -68t-82.5 -32q-33 0 -54.5 15t-21.5 46zM516 911 q0 37 44.5 67t90.5 30q62 0 62 -58q0 -36 -38.5 -68t-82.5 -32q-33 0 -54.5 15t-21.5 46z" />
<glyph unicode="&#xfd;" horiz-adv-x="729" d="M-78 -465q0 50 21.5 94.5t56 79t86.5 69t105 63t119 61.5q6 3 9 4q61 157 115 375q-161 -261 -299 -261q-66 0 -115 42.5t-49 123.5q0 73 32.5 180.5t76 187t72.5 79.5q17 0 53.5 -15.5t36.5 -31.5q-40 -60 -88 -192.5t-48 -209.5q0 -82 74 -82q55 0 130.5 76.5 t142.5 186.5q10 38 20 94q8 39 34 71.5t71 32.5q19 0 43 -6q0 -56 -46 -227t-114 -346q103 40 193 127.5t145 220.5l26 -21q-74 -239 -387 -383q-42 -104 -86 -190t-93.5 -158t-103 -112.5t-104.5 -40.5q-56 0 -92.5 28t-36.5 80zM-14 -446q0 -22 13.5 -42t41.5 -20 q17 0 43 20t59.5 60.5t75 114.5t80.5 170q-54 -28 -83.5 -45t-72 -43t-66 -47t-47 -48.5t-34 -57t-10.5 -62.5zM463 811q0 25 35.5 84t87.5 111.5t90 52.5q40 0 45 -64q-154 -135 -229 -237q-13 7 -21 24t-8 29z" />
<glyph unicode="&#xfe;" horiz-adv-x="802" d="M-231 -496q7 26 48.5 168.5t57.5 201.5t53 210t59.5 270t51.5 302t53 380q2 20 9 27.5t30 7.5q49 0 73.5 -27.5t24.5 -66.5q0 -31 -35.5 -260t-56.5 -324q29 56 63.5 105t79.5 95.5t100 73.5t112 27q91 0 148.5 -64.5t57.5 -168.5q0 -64 -22.5 -135t-66.5 -138 t-101.5 -121t-134 -87t-158.5 -33q-51 0 -85 12t-34 25q0 10 51 10q79 0 157 41t134.5 104.5t91.5 144.5t35 158q0 69 -29 113.5t-87 44.5q-51 0 -105.5 -34t-99.5 -86.5t-79.5 -107t-55.5 -102.5q-75 -322 -146.5 -561t-105.5 -272q-10 -10 -25 -10q-23 0 -44 33.5 t-19 43.5z" />
<glyph unicode="&#xff;" horiz-adv-x="729" d="M-78 -465q0 50 21.5 94.5t56 79t86.5 69t105 63t119 61.5q6 3 9 4q61 157 115 375q-161 -261 -299 -261q-66 0 -115 42.5t-49 123.5q0 73 32.5 180.5t76 187t72.5 79.5q17 0 53.5 -15.5t36.5 -31.5q-40 -60 -88 -192.5t-48 -209.5q0 -82 74 -82q55 0 130.5 76.5 t142.5 186.5q10 38 20 94q8 39 34 71.5t71 32.5q19 0 43 -6q0 -56 -46 -227t-114 -346q103 40 193 127.5t145 220.5l26 -21q-74 -239 -387 -383q-42 -104 -86 -190t-93.5 -158t-103 -112.5t-104.5 -40.5q-56 0 -92.5 28t-36.5 80zM-14 -446q0 -22 13.5 -42t41.5 -20 q17 0 43 20t59.5 60.5t75 114.5t80.5 170q-54 -28 -83.5 -45t-72 -43t-66 -47t-47 -48.5t-34 -57t-10.5 -62.5zM221 954q0 37 44.5 67t90.5 30q62 0 62 -58q0 -36 -38.5 -68t-82.5 -32q-33 0 -54.5 15t-21.5 46zM516 911q0 37 44.5 67t90.5 30q62 0 62 -58q0 -36 -38.5 -68 t-82.5 -32q-33 0 -54.5 15t-21.5 46z" />
<glyph unicode="&#x152;" horiz-adv-x="1628" d="M0 330q0 154 50 320t136.5 310.5t193.5 261t230.5 184t237.5 67.5q75 0 123 -25h-23q-102 0 -214 -70.5t-209 -190.5t-175.5 -266t-124 -310t-45.5 -310q0 -115 27 -204.5t91 -147.5t157 -58q96 0 188 72t164 191.5t127.5 267t85 307.5t29.5 305q0 260 -62 260 q-77 0 -244 -415q-98 22 -98 100q0 70 64 164t154 161.5t157 67.5q136 8 233 8q297 0 398 -34q-28 -74 -348 -74q-34 0 -86 3t-78 3q7 -22 14.5 -71.5t7.5 -88.5q0 -198 -26 -370q271 0 415 -21q-18 -47 -90 -73.5t-194 -26.5q-74 0 -152 4q-20 -91 -33 -144.5t-33 -127.5 t-37 -119.5t-41.5 -100.5t-51.5 -91.5t-62.5 -72t-77.5 -61.5q106 -4 342 -4q25 0 116.5 4t127.5 4q33 0 41 -2q-19 -48 -203 -72t-407 -24q-56 0 -175.5 1t-179.5 1q-203 0 -321.5 127.5t-118.5 380.5z" />
<glyph unicode="&#x153;" horiz-adv-x="1114" d="M-90 74q0 72 33 158.5t90.5 168t128.5 150t154.5 110t160.5 41.5q112 0 141 -86q137 121 269 121q127 0 127 -125q0 -61 -30.5 -119t-81.5 -104.5t-116.5 -83.5t-137.5 -60t-142 -30q-8 -36 -8 -74q0 -74 37 -123t124 -49q126 0 252.5 104.5t206.5 258.5l25 -19 q-83 -183 -228 -293t-299 -110q-117 0 -181.5 62.5t-67.5 162.5q-91 -119 -163 -175t-143 -56q-68 0 -109.5 43.5t-41.5 126.5zM51 68q0 -80 55 -80q97 0 265 215l6 30q-65 22 -101 82.5t-36 133.5q0 30 6 57q-83 -97 -139 -222t-56 -216zM319 418q0 -80 72 -131 q54 155 178 282q-17 78 -96 78q-58 0 -106 -70t-48 -159zM516 254q60 21 125.5 56t131.5 82.5t108.5 110t42.5 124.5q0 25 -9 36t-34 11q-63 0 -139 -64t-137.5 -161.5t-88.5 -194.5z" />
<glyph unicode="&#x178;" horiz-adv-x="1327" d="M0 1104q0 85 52.5 170.5t144.5 143t194 57.5q108 0 160.5 -61.5t52.5 -145.5q0 -62 -34 -187t-68.5 -262.5t-34.5 -230.5q0 -197 143 -197q68 0 134 45t121 122.5t98 161t81 181.5q139 574 246 574q21 0 54 -18t61 -48q-103 -164 -156 -326t-182 -686q-24 -97 -39.5 -155 t-46 -151t-59.5 -150t-75 -125.5t-97 -107t-122 -65t-153 -26.5q-122 0 -202 51t-80 142q0 111 122 153q-16 -55 -16 -110q0 -87 45.5 -136t132.5 -49q57 0 108.5 22.5t89.5 58t72.5 87.5t58 102t44 111t32.5 105.5t23 93.5q8 36 36.5 180.5t49.5 239.5 q-89 -170 -197 -264.5t-247 -94.5q-116 0 -169.5 65t-53.5 179q0 72 21.5 174.5t48 188.5t48 182.5t21.5 158.5q0 71 -27.5 115.5t-89.5 44.5q-54 0 -98 -36t-70 -91t-39.5 -114.5t-13.5 -112.5q0 -60 16 -100q-74 0 -107.5 38.5t-33.5 102.5zM725 1647q0 37 44.5 66.5 t90.5 29.5q62 0 62 -57q0 -36 -38.5 -68.5t-82.5 -32.5q-33 0 -54.5 15.5t-21.5 46.5zM1020 1604q0 37 44.5 66.5t90.5 29.5q62 0 62 -58q0 -36 -38.5 -68t-82.5 -32q-33 0 -54.5 15.5t-21.5 46.5z" />
<glyph unicode="&#x2c6;" horiz-adv-x="417" d="M0 942q0 37 47 81t102 71.5t84 27.5q50 0 117.5 -81t67.5 -146q0 -47 -35 -64q-27 54 -62 96t-90 93q-138 -51 -211 -117q-20 13 -20 39z" />
<glyph unicode="&#x2dc;" horiz-adv-x="628" d="M0 862q71 94 170 94q53 0 184.5 -45t212.5 -45q32 0 62 6q-65 -73 -160 -73q-57 0 -183 40t-192 40q-50 0 -94 -17z" />
<glyph unicode="&#x2000;" horiz-adv-x="942" />
<glyph unicode="&#x2001;" horiz-adv-x="1884" />
<glyph unicode="&#x2002;" horiz-adv-x="942" />
<glyph unicode="&#x2003;" horiz-adv-x="1884" />
<glyph unicode="&#x2004;" horiz-adv-x="628" />
<glyph unicode="&#x2005;" horiz-adv-x="471" />
<glyph unicode="&#x2006;" horiz-adv-x="314" />
<glyph unicode="&#x2007;" horiz-adv-x="314" />
<glyph unicode="&#x2008;" horiz-adv-x="235" />
<glyph unicode="&#x2009;" horiz-adv-x="376" />
<glyph unicode="&#x200a;" horiz-adv-x="104" />
<glyph unicode="&#x2010;" d="M117 295q22 57 121 78.5t266 21.5t344 -18q-83 -60 -211 -60h-195q-183 0 -325 -22z" />
<glyph unicode="&#x2011;" d="M117 295q22 57 121 78.5t266 21.5t344 -18q-83 -60 -211 -60h-195q-183 0 -325 -22z" />
<glyph unicode="&#x2012;" d="M117 295q22 57 121 78.5t266 21.5t344 -18q-83 -60 -211 -60h-195q-183 0 -325 -22z" />
<glyph unicode="&#x2013;" horiz-adv-x="1441" d="M2 233q4 50 48 84t125 52t177.5 25t227.5 7q176 0 352.5 -17.5t275.5 -18.5q-107 -93 -268 -93q-103 -1 -242.5 -1.5t-186.5 -0.5t-128 -1.5t-107 -3.5t-81 -6.5t-92 -10t-101 -15.5z" />
<glyph unicode="&#x2014;" horiz-adv-x="1705" d="M2 233q4 40 42 70t100 48.5t155 30t194 15.5t230 4q221 0 441.5 -17.5t344.5 -18.5q-135 -93 -333 -93q-129 -1 -303.5 -1.5t-233.5 -0.5t-160 -1.5t-133.5 -3.5t-101 -6.5t-115.5 -10t-127 -15.5z" />
<glyph unicode="&#x2018;" horiz-adv-x="262" d="M33 1417q0 23 15.5 40.5t35.5 17.5q9 -34 59 -109t66 -111q4 -12 4 -18q0 -34 -39 -57q-12 19 -54.5 77.5t-64.5 97t-22 62.5z" />
<glyph unicode="&#x2019;" horiz-adv-x="262" d="M33 1237q0 6 4 18q16 36 66 111t59 109q20 0 35.5 -17.5t15.5 -40.5q0 -24 -22 -62.5t-64.5 -97t-54.5 -77.5q-39 23 -39 57z" />
<glyph unicode="&#x201a;" horiz-adv-x="321" d="M-14 -104q0 67 40.5 143t84.5 76q20 0 35.5 -17.5t15.5 -40.5q-18 -19 -34.5 -41t-27 -37t-24.5 -41.5t-19 -37t-19.5 -42t-17.5 -38.5q-34 19 -34 76z" />
<glyph unicode="&#x201c;" horiz-adv-x="483" d="M33 1417q0 23 15.5 40.5t35.5 17.5q9 -34 59 -109t66 -111q4 -12 4 -18q0 -34 -39 -57q-12 19 -54.5 77.5t-64.5 97t-22 62.5zM258 1417q0 23 15.5 40.5t35.5 17.5q9 -34 59 -109t66 -111q4 -12 4 -18q0 -34 -39 -57q-12 19 -54.5 77.5t-64.5 97t-22 62.5z" />
<glyph unicode="&#x201d;" horiz-adv-x="483" d="M33 1237q0 6 4 18q16 36 66 111t59 109q20 0 35.5 -17.5t15.5 -40.5q0 -24 -22 -62.5t-64.5 -97t-54.5 -77.5q-39 23 -39 57zM258 1237q0 6 4 18q16 36 66 111t59 109q20 0 35.5 -17.5t15.5 -40.5q0 -24 -22 -62.5t-64.5 -97t-54.5 -77.5q-39 23 -39 57z" />
<glyph unicode="&#x201e;" horiz-adv-x="493" d="M-14 -104q0 67 40.5 143t84.5 76q20 0 35.5 -17.5t15.5 -40.5q-18 -19 -34.5 -41t-27 -37t-24.5 -41.5t-19 -37t-19.5 -42t-17.5 -38.5q-34 19 -34 76zM211 -104q0 67 40.5 143t84.5 76q20 0 35.5 -17.5t15.5 -40.5q-18 -19 -34.5 -40.5t-27.5 -38t-24 -41t-19 -37.5 t-18.5 -41.5t-17.5 -38.5q-35 20 -35 76z" />
<glyph unicode="&#x2022;" horiz-adv-x="448" d="M113 319q0 49 44.5 94.5t98.5 45.5q37 0 67.5 -26.5t30.5 -63.5q0 -44 -47.5 -85.5t-101.5 -41.5q-39 0 -65.5 19.5t-26.5 57.5z" />
<glyph unicode="&#x2026;" horiz-adv-x="958" d="M4 35q0 33 38.5 58.5t80.5 25.5q53 0 53 -49q0 -31 -33.5 -60.5t-72.5 -29.5q-29 0 -47.5 13.5t-18.5 41.5zM324 35q0 33 38.5 58.5t79.5 25.5q54 0 54 -49q0 -31 -34 -60.5t-73 -29.5q-28 0 -46.5 13.5t-18.5 41.5zM643 35q0 33 38.5 58.5t80.5 25.5q53 0 53 -49 q0 -31 -33.5 -60.5t-72.5 -29.5q-29 0 -47.5 13.5t-18.5 41.5z" />
<glyph unicode="&#x202f;" horiz-adv-x="376" />
<glyph unicode="&#x2039;" horiz-adv-x="593" d="M80 324l26 4q84 42 192 136t171 183q10 -15 10 -45q0 -39 -32.5 -82t-91.5 -84.5t-108 -71t-114 -63.5q55 -40 87 -61t94 -52t151 -65q-28 -33 -59 -33q-47 0 -121.5 41t-134.5 97t-70 96z" />
<glyph unicode="&#x203a;" horiz-adv-x="593" d="M80 602q0 30 10 45q63 -89 171 -183t192 -136l26 -4q-10 -40 -69.5 -96t-134 -97t-121.5 -41q-32 0 -60 33q128 50 190 84.5t142 93.5q-65 34 -114 63.5t-108 71t-91.5 84.5t-32.5 82z" />
<glyph unicode="&#x205f;" horiz-adv-x="471" />
<glyph unicode="&#x20ac;" horiz-adv-x="1222" d="M0 317q5 126 225 140q2 12 17 92l-131 -17l-70 -10q5 124 229 142q66 212 192.5 397t286.5 298.5t310 113.5q88 0 138 -43t50 -134q0 -80 -35 -182.5t-91.5 -178t-110.5 -75.5q-43 0 -64 47q76 85 147.5 208.5t71.5 203.5q0 92 -100 92q-107 0 -229 -108.5t-223.5 -279 t-163.5 -361.5q61 -4 177 -17t167 -14q-23 -33 -58 -46t-96 -18t-221 -8q-11 -47 -21 -100q64 -4 184 -18t171 -15q-33 -46 -91.5 -56.5t-277.5 -13.5q-2 -25 -2 -69q0 -79 16.5 -148t50 -125.5t90.5 -89.5t132 -33q157 0 314.5 129.5t242.5 311.5l28 -21 q-72 -140 -164 -246.5t-215 -174.5t-255 -68q-105 0 -185 42.5t-126.5 114.5t-69.5 158.5t-23 184.5v24q-51 -5 -147 -18z" />
<glyph unicode="&#x2122;" horiz-adv-x="1189" d="M178 1393q1 24 30 39.5t90.5 22.5t120.5 9t154 2h158q47 0 68.5 -39t21.5 -147q0 -47 -7 -145t-7 -113q25 40 62.5 122.5t66 146t65.5 114.5t68 51q11 0 29 -6l6 -6q-28 -70 -70.5 -270t-42.5 -300q0 -29 6 -47l9 -24q-50 0 -67 20.5t-17 73.5q0 140 67 395 q-81 -137 -190 -411q-9 -9 -19 -9q-25 0 -34 25t-9 78q0 45 6.5 172.5t6.5 173.5v8q-143 -344 -190.5 -435t-92.5 -91l41 92q13 29 53 113.5t82 177.5t80 184q10 20 10 31q0 16 -20 16q-167 0 -256 -12q-59 -150 -113.5 -321t-54.5 -259q0 -10 4 -22q-84 0 -84 61 q0 44 63 221.5t129 317.5q-134 0 -213 -14z" />
<glyph unicode="&#xe000;" horiz-adv-x="675" d="M0 0v676h676v-676h-676z" />
</font>
</defs>
</svg>
